<svg width="26" height="32" viewBox="0 0 26 32" fill="none" xmlns="http://www.w3.org/2000/svg">
<path d="M13 1C19.32 1 25 5.88 25 13.32C25 18.12 21.32 23.72 13.96 30.2C13.4 30.68 12.52 30.68 11.96 30.2C4.68 23.72 1 18.12 1 13.32C1 5.88 6.68 1 13 1Z" fill="#00AECB" stroke="white" stroke-miterlimit="10"/>
<path d="M15.4002 14.04C15.4802 14.04 15.4802 14.04 15.4002 14.04L18.7602 10.2C19.0802 9.80001 19.0802 9.16001 18.6802 8.84001C18.2802 8.44001 17.6402 8.52001 17.3202 8.92001L15.0002 11.64C14.7602 11.96 14.4402 12.12 14.0402 12.12H12.0402C11.6402 12.12 11.3202 11.96 11.0802 11.64L8.68023 8.92001C8.36023 8.52001 7.72023 8.52001 7.32023 8.84001C6.92023 9.16001 6.92023 9.80001 7.24023 10.2L10.5202 14.04L9.32023 17.8C9.16023 18.28 9.48023 18.76 9.96023 18.76H10.6002L10.2802 21.8C10.2002 22.36 10.6002 22.84 11.1602 22.92C11.7202 23 12.2002 22.6 12.2802 22.04L12.6802 18.92C12.6802 18.84 12.7602 18.84 12.8402 18.84H13.5602C13.6402 18.84 13.7202 18.92 13.7202 18.92L14.1202 22.04C14.2002 22.52 14.6002 22.92 15.0802 22.92H15.1602C15.7202 22.84 16.0402 22.36 16.0402 21.8L15.4002 18.76H15.9602C16.4402 18.76 16.7602 18.28 16.6002 17.8L15.4002 14.04Z" fill="white"/>
<path d="M15.3205 8.76006C15.3205 10.0401 14.2805 11.0801 13.0005 11.0801C11.7205 11.0801 10.6805 10.0401 10.6805 8.76006C10.6805 7.48006 11.7205 6.44006 13.0005 6.44006C14.2805 6.44006 15.3205 7.48006 15.3205 8.76006Z" fill="white"/>
</svg>
