<svg width="26" height="32" viewBox="0 0 26 32" fill="none" xmlns="http://www.w3.org/2000/svg">
<path d="M13 1C19.32 1 25 5.88 25 13.32C25 18.12 21.32 23.72 13.96 30.2C13.4 30.68 12.52 30.68 11.96 30.2C4.68 23.72 1 18.12 1 13.32C1 5.88 6.68 1 13 1Z" fill="#00AECB" stroke="white" stroke-miterlimit="10"/>
<path d="M13 12.35C14.1953 12.35 15.2513 12.636 16.1093 13.01C16.9013 13.362 17.4 14.154 17.4 15.012V16.2H8.60001V15.0194C8.60001 14.154 9.09868 13.362 9.89068 13.0174C10.7487 12.636 11.8047 12.35 13 12.35ZM7.13335 12.5334C7.94001 12.5334 8.60001 11.8734 8.60001 11.0667C8.60001 10.26 7.94001 9.60002 7.13335 9.60002C6.32668 9.60002 5.66668 10.26 5.66668 11.0667C5.66668 11.8734 6.32668 12.5334 7.13335 12.5334ZM7.96201 13.34C7.69068 13.296 7.41935 13.2667 7.13335 13.2667C6.40735 13.2667 5.71801 13.4207 5.09468 13.692C4.55201 13.9267 4.20001 14.4547 4.20001 15.0487V16.2H7.50001V15.0194C7.50001 14.4107 7.66868 13.8387 7.96201 13.34ZM18.8667 12.5334C19.6733 12.5334 20.3333 11.8734 20.3333 11.0667C20.3333 10.26 19.6733 9.60002 18.8667 9.60002C18.06 9.60002 17.4 10.26 17.4 11.0667C17.4 11.8734 18.06 12.5334 18.8667 12.5334ZM21.8 15.0487C21.8 14.4547 21.448 13.9267 20.9053 13.692C20.282 13.4207 19.5927 13.2667 18.8667 13.2667C18.5807 13.2667 18.3093 13.296 18.038 13.34C18.3313 13.8387 18.5 14.4107 18.5 15.0194V16.2H21.8V15.0487ZM13 7.40002C14.2173 7.40002 15.2 8.38269 15.2 9.60002C15.2 10.8174 14.2173 11.8 13 11.8C11.7827 11.8 10.8 10.8174 10.8 9.60002C10.8 8.38269 11.7827 7.40002 13 7.40002Z" fill="white"/>
</svg>
