<?xml version="1.0" encoding="utf-8"?>
<!-- Generator: Adobe Illustrator 23.0.3, SVG Export Plug-In . SVG Version: 6.00 Build 0)  -->
<svg version="1.1" id="Layer_1" xmlns="http://www.w3.org/2000/svg" xmlns:xlink="http://www.w3.org/1999/xlink" x="0px" y="0px"
	 width="50px" height="50px" viewBox="0 0 50 50" enable-background="new 0 0 50 50" xml:space="preserve">
<circle fill="#2C00D5" cx="25" cy="25" r="25"/>
<g>
	<g>
		<path fill="#FFFFFF" d="M18.7,12.8h6.5c4.4,0,6.5,1.8,6.5,5.5v0.4c0,2.4-1,3.9-3,4.6v0.1c2.4,0.7,3.5,2.4,3.5,5.2v0.4
			c0,4.1-2.1,6.1-6.5,6.1h-6.9V12.8z M24.6,22.1c2.3,0,3.4-0.9,3.4-2.9v-0.4c0-2-0.9-2.8-2.9-2.8h-2.7v6.1H24.6z M25.5,32
			c2,0,2.9-0.8,2.9-2.9v-0.6c0-2.4-1-3.2-3.6-3.2h-2.5V32H25.5z"/>
	</g>
</g>
</svg>
