<svg width="29" height="35" viewBox="0 0 29 35" fill="none" xmlns="http://www.w3.org/2000/svg">
<g clip-path="url(#clip0_526_770)">
<path d="M14.5 0.5C21.87 0.5 28.5 6.11 28.5 14.67C28.5 20.19 24.21 26.63 15.62 34.09C14.97 34.64 13.94 34.64 13.29 34.09C4.79 26.63 0.5 20.19 0.5 14.67C0.5 6.11 7.13 0.5 14.5 0.5Z" fill="#FFC726" stroke="white" stroke-miterlimit="10"/>
<path d="M20.34 12.71L18.86 8.27996C18.8 8.11996 18.7 7.96996 18.56 7.86996C18.42 7.76996 18.25 7.70996 18.08 7.70996H10.95C10.78 7.70996 10.61 7.75996 10.47 7.85996C10.33 7.95996 10.22 8.09996 10.17 8.26996L8.69002 12.7C8.47002 12.7 8.25002 12.74 8.05002 12.83C7.85002 12.91 7.66002 13.04 7.51002 13.19C7.35002 13.34 7.23002 13.53 7.15002 13.73C7.07002 13.93 7.02002 14.15 7.02002 14.37V19.37H8.68002V21.04C8.68002 21.48 8.87002 21.89 9.18002 22.2C9.49002 22.51 9.91002 22.68 10.35 22.68C10.79 22.68 11.21 22.51 11.52 22.2C11.83 21.89 12.01 21.48 12.02 21.04V19.37H17.02V21.04C17.02 21.48 17.19 21.91 17.51 22.22C17.82 22.53 18.25 22.71 18.69 22.71C19.13 22.71 19.56 22.54 19.87 22.22C20.18 21.91 20.36 21.48 20.36 21.04V19.37H22.03V14.38C22.03 13.94 21.86 13.52 21.55 13.2C21.24 12.89 20.82 12.71 20.38 12.71H20.34ZM10.34 17.7C10.01 17.7 9.69002 17.6 9.42002 17.42C9.15002 17.24 8.93002 16.98 8.81002 16.67C8.68002 16.37 8.65002 16.03 8.72002 15.71C8.79002 15.39 8.94002 15.09 9.18002 14.86C9.41002 14.63 9.71002 14.47 10.03 14.41C10.35 14.35 10.69 14.38 10.99 14.51C11.29 14.64 11.55 14.85 11.74 15.13C11.92 15.4 12.02 15.73 12.02 16.06C12.02 16.28 11.98 16.5 11.89 16.7C11.81 16.9 11.68 17.09 11.53 17.24C11.37 17.39 11.19 17.52 10.99 17.6C10.79 17.68 10.57 17.72 10.35 17.72L10.34 17.7ZM10.34 12.7L11.37 9.37996H17.64L18.67 12.71H10.34V12.7ZM18.66 17.71C18.33 17.71 18.01 17.61 17.74 17.43C17.47 17.25 17.25 16.99 17.13 16.68C17 16.38 16.97 16.04 17.04 15.72C17.11 15.4 17.26 15.1 17.5 14.87C17.73 14.64 18.03 14.48 18.35 14.42C18.67 14.36 19.01 14.39 19.31 14.52C19.61 14.65 19.87 14.86 20.06 15.13C20.24 15.4 20.34 15.73 20.34 16.06C20.34 16.28 20.3 16.5 20.21 16.7C20.13 16.9 20 17.09 19.85 17.24C19.69 17.39 19.51 17.52 19.31 17.6C19.11 17.68 18.89 17.73 18.67 17.73L18.66 17.71Z" fill="white"/>
</g>
<defs>
<clipPath id="clip0_526_770">
<rect width="29" height="35" fill="white"/>
</clipPath>
</defs>
</svg>
