<svg width="30" height="36" viewBox="0 0 30 36" fill="none" xmlns="http://www.w3.org/2000/svg">
<path d="M15 1C22.3733 1 29 6.61299 29 15.1705C29 20.6915 24.7067 27.1326 16.12 34.5859C15.4667 35.138 14.44 35.138 13.7867 34.5859C5.29333 27.1326 1 20.6915 1 15.1705C1 6.61299 7.62667 1 15 1Z" fill="#277BB4" stroke="white" stroke-miterlimit="10"/>
<path d="M14.1 24V20.265L11.175 23.145L9.915 21.885L14.1 17.7V15.9H12.3L8.115 20.085L6.855 18.825L9.735 15.9H6V14.1H9.735L6.855 11.175L8.115 9.915L12.3 14.1H14.1V12.3L9.915 8.115L11.175 6.855L14.1 9.735V6H15.9V9.735L18.825 6.855L20.085 8.115L15.9 12.3V14.1H17.7L21.885 9.915L23.145 11.175L20.265 14.1H24V15.9H20.265L23.145 18.825L21.885 20.085L17.7 15.9H15.9V17.7L20.085 21.885L18.825 23.145L15.9 20.265V24H14.1Z" fill="white"/>
</svg>
