<svg width="30" height="30" viewBox="0 0 30 30" fill="none" xmlns="http://www.w3.org/2000/svg">
<g clip-path="url(#clip0_209_25128)">
<path d="M15 29.375C22.9391 29.375 29.375 22.9391 29.375 15C29.375 7.06091 22.9391 0.625 15 0.625C7.06091 0.625 0.625 7.06091 0.625 15C0.625 22.9391 7.06091 29.375 15 29.375Z" fill="#575756"/>
<path d="M15 1.25C17.7195 1.25 20.3779 2.05642 22.6391 3.56729C24.9003 5.07816 26.6626 7.22562 27.7033 9.7381C28.744 12.2506 29.0163 15.0153 28.4858 17.6825C27.9553 20.3497 26.6457 22.7997 24.7227 24.7227C22.7997 26.6457 20.3497 27.9552 17.6825 28.4858C15.0153 29.0163 12.2506 28.744 9.73811 27.7033C7.22562 26.6626 5.07817 24.9003 3.5673 22.6391C2.05643 20.3779 1.25001 17.7195 1.25001 15C1.25431 11.3546 2.70434 7.85972 5.28204 5.28203C7.85973 2.70434 11.3546 1.2543 15 1.25ZM15 0C12.0333 0 9.13319 0.879734 6.66645 2.52796C4.19971 4.17618 2.27713 6.51886 1.14181 9.25975C0.00649929 12.0006 -0.290551 15.0166 0.288227 17.9264C0.867006 20.8361 2.29562 23.5088 4.3934 25.6066C6.49119 27.7044 9.16394 29.133 12.0737 29.7118C14.9834 30.2906 17.9994 29.9935 20.7403 28.8582C23.4811 27.7229 25.8238 25.8003 27.472 23.3335C29.1203 20.8668 30 17.9667 30 15C30 11.0218 28.4196 7.20644 25.6066 4.3934C22.7936 1.58035 18.9783 0 15 0Z" fill="white"/>
<path d="M18.4998 7.31252C18.016 7.31252 17.6248 7.28627 17.4998 8.28627L16.9998 11.4375L19.9998 13.9113H22.4998C24.2498 13.9113 24.3748 12.7125 24.3748 12.7125L21.9998 9.93877C21.6619 9.58881 21.2524 9.31585 20.7994 9.13853C20.3464 8.96121 19.8605 8.88369 19.3748 8.91127V8.28627C19.3911 8.16293 19.3804 8.03753 19.3436 7.91869C19.3068 7.79985 19.2447 7.6904 19.1616 7.59786C19.0784 7.50532 18.9762 7.4319 18.862 7.38264C18.7477 7.33338 18.6242 7.30946 18.4998 7.31252ZM11.561 7.66127C10.9069 7.67625 10.257 7.76898 9.62479 7.93752C9.16085 8.13105 8.76788 8.46294 8.49944 8.88796C8.23101 9.31297 8.10018 9.81043 8.12479 10.3125V15.1875C8.12479 17.3125 7.24979 17.6613 6.87479 17.6613C6.7084 17.6612 6.54368 17.6944 6.39029 17.7589C6.2369 17.8233 6.09791 17.9177 5.98149 18.0366C5.86507 18.1555 5.77355 18.2964 5.7123 18.4511C5.65104 18.6058 5.62129 18.7712 5.62479 18.9375V21.6875C5.62224 21.8195 5.64636 21.9507 5.69572 22.0732C5.74507 22.1957 5.81863 22.3069 5.91201 22.4003C6.00538 22.4937 6.11663 22.5672 6.23911 22.6166C6.36159 22.6659 6.49277 22.6901 6.62479 22.6875H8.12479V21.8125C8.14063 21.6164 8.08657 21.4209 7.97219 21.2608C7.85781 21.1007 7.69047 20.9861 7.49979 20.9375V19.5625C8.14522 19.5824 8.78663 19.4541 9.37479 19.1875L10.0635 21.9375C10.1885 22.3125 10.3135 22.5625 10.6885 22.6875H11.9385L13.1248 22.665V21.665C13.1248 20.82 11.8748 20.79 11.8748 20.79V17.665H16.2498L17.1248 20.9413C17.6248 22.6913 18.7498 22.665 18.7498 22.665H20.6248V21.665C20.6248 20.775 19.3748 20.79 19.3748 20.79L19.4998 15.6925L15.6248 12.665H9.99979V10.165C9.99187 10.081 10.0026 9.99621 10.0312 9.91679C10.0598 9.83736 10.1056 9.76523 10.1653 9.70554C10.225 9.64584 10.2971 9.60006 10.3766 9.57145C10.456 9.54283 10.5407 9.5321 10.6248 9.54002C11.2423 9.52502 11.5623 9.54002 11.5623 9.54002C11.8109 9.54002 12.0494 9.44124 12.2252 9.26543C12.401 9.08961 12.4998 8.85116 12.4998 8.60252C12.4998 8.35388 12.401 8.11542 12.2252 7.9396C12.0494 7.76379 11.8109 7.66502 11.5623 7.66502L11.561 7.66127ZM20.311 10.7863C20.3728 10.7863 20.4333 10.8046 20.4846 10.8389C20.536 10.8733 20.5761 10.9221 20.5997 10.9792C20.6234 11.0363 20.6296 11.0991 20.6175 11.1597C20.6055 11.2203 20.5757 11.276 20.532 11.3197C20.4883 11.3634 20.4326 11.3932 20.372 11.4053C20.3114 11.4173 20.2485 11.4111 20.1914 11.3875C20.1343 11.3638 20.0855 11.3238 20.0512 11.2724C20.0169 11.221 19.9985 11.1606 19.9985 11.0988C19.9985 11.0576 20.0067 11.0169 20.0224 10.9789C20.0382 10.9409 20.0614 10.9064 20.0905 10.8774C20.1197 10.8483 20.1543 10.8253 20.1923 10.8097C20.2304 10.7941 20.2711 10.7861 20.3123 10.7863H20.311Z" fill="white"/>
</g>
<defs>
<clipPath id="clip0_209_25128">
<rect width="30" height="30" fill="white"/>
</clipPath>
</defs>
</svg>
