<svg width="30" height="36" viewBox="0 0 30 36" fill="none" xmlns="http://www.w3.org/2000/svg">
<path d="M15 1C22.3733 1 29 6.61299 29 15.1705C29 20.6915 24.7067 27.1326 16.12 34.5859C15.4667 35.138 14.44 35.138 13.7867 34.5859C5.29333 27.1326 1 20.6915 1 15.1705C1 6.61299 7.62667 1 15 1Z" fill="#645FAA" stroke="white" stroke-miterlimit="10"/>
<path d="M11.269 24C11.117 24 10.9839 23.9413 10.8699 23.8239C10.7558 23.7065 10.6988 23.5696 10.6988 23.413C10.6988 23.2565 10.7558 23.1196 10.8699 23.0022C10.9839 22.8848 11.117 22.8261 11.269 22.8261C11.4211 22.8261 11.5541 22.8848 11.6681 23.0022C11.7822 23.1196 11.8392 23.2565 11.8392 23.413C11.8392 23.5696 11.7822 23.7065 11.6681 23.8239C11.5541 23.9413 11.4211 24 11.269 24ZM17.731 24C17.5789 24 17.4459 23.9413 17.3319 23.8239C17.2178 23.7065 17.1608 23.5696 17.1608 23.413C17.1608 23.2565 17.2178 23.1196 17.3319 23.0022C17.4459 22.8848 17.5789 22.8261 17.731 22.8261C17.883 22.8261 18.0161 22.8848 18.1301 23.0022C18.2442 23.1196 18.3012 23.2565 18.3012 23.413C18.3012 23.5696 18.2442 23.7065 18.1301 23.8239C18.0161 23.9413 17.883 24 17.731 24ZM10.8889 22.4348C10.3187 22.4348 9.79289 22.3076 9.3114 22.0533C8.82992 21.7989 8.4308 21.4565 8.11404 21.0261C8.07602 20.9609 8.04751 20.9022 8.02851 20.85C8.0095 20.7978 8 20.7391 8 20.6739C8 20.5174 8.05068 20.3804 8.15205 20.263C8.25341 20.1457 8.39279 20.087 8.57018 20.087C8.67154 20.087 8.75707 20.1065 8.82675 20.1457C8.89644 20.1848 8.96296 20.2435 9.02632 20.3217C9.17836 20.5435 9.37159 20.7293 9.60599 20.8793C9.8404 21.0293 10.0906 21.137 10.3567 21.2022L12.7325 18.2478L11.7251 15C11.6618 14.7783 11.6428 14.5565 11.6681 14.3348C11.6935 14.113 11.7632 13.9043 11.8772 13.7087L13.7018 10.6957H11.9152L10.4708 13.0826L9.17836 12.2609L11.0789 9.13043H15.4123C15.7544 9.13043 16.03 9.22826 16.239 9.42391C16.4481 9.61957 16.5906 9.80217 16.6667 9.97174L17.0658 10.9109C17.3192 11.537 17.7278 12.0489 18.2917 12.4467C18.8555 12.8446 19.4922 13.0435 20.2018 13.0435V14.6087C19.3148 14.6087 18.5039 14.3902 17.769 13.9533C17.0341 13.5163 16.4449 12.9391 16.0015 12.2217L14.633 14.4717L17.9211 16.5652V21.2609H18.1491C18.5166 21.2609 18.8587 21.1761 19.1754 21.0065C19.4922 20.837 19.7583 20.6087 19.9737 20.3217C20.037 20.2435 20.1036 20.1848 20.1732 20.1457C20.2429 20.1065 20.3285 20.087 20.4298 20.087C20.5945 20.087 20.7308 20.1457 20.8385 20.263C20.9462 20.3804 21 20.5174 21 20.6739C21 20.7391 20.9905 20.7978 20.9715 20.85C20.9525 20.9022 20.924 20.9609 20.886 21.0261C20.5692 21.4565 20.1764 21.7989 19.7076 22.0533C19.2388 22.3076 18.7193 22.4348 18.1491 22.4348H10.8889ZM12.2953 21.2609H16.4006V17.6609L13.7398 15.9391L14.5 18.5217L12.2953 21.2609ZM17.1608 9.13043C16.7427 9.13043 16.3847 8.97717 16.087 8.67065C15.7892 8.36413 15.6404 7.99565 15.6404 7.56522C15.6404 7.13478 15.7892 6.7663 16.087 6.45978C16.3847 6.15326 16.7427 6 17.1608 6C17.5789 6 17.9369 6.15326 18.2346 6.45978C18.5324 6.7663 18.6813 7.13478 18.6813 7.56522C18.6813 7.99565 18.5324 8.36413 18.2346 8.67065C17.9369 8.97717 17.5789 9.13043 17.1608 9.13043Z" fill="white"/>
</svg>
