<svg width="75" height="76" viewBox="0 0 75 76" fill="none" xmlns="http://www.w3.org/2000/svg">
<path d="M74.0396 40.1289C72.8411 39.8366 71.6378 39.5749 70.4326 39.3265C70.4724 38.6497 70.4983 37.9693 70.4983 37.283C70.4974 35.048 70.2794 32.8183 69.8475 30.6254C70.8646 30.2365 71.8766 29.8612 72.8636 29.5018C72.9662 29.4644 73.0605 29.4072 73.1411 29.3334C73.2216 29.2596 73.2869 29.1707 73.333 29.0717C73.3792 28.9727 73.4055 28.8655 73.4102 28.7564C73.415 28.6473 73.3983 28.5382 73.3609 28.4356C73.3235 28.3329 73.2663 28.2386 73.1925 28.158C73.1187 28.0775 73.0298 28.0123 72.9308 27.9661C72.8318 27.9199 72.7247 27.8937 72.6155 27.8889C72.5064 27.8841 72.3974 27.9009 72.2947 27.9382C71.3739 28.2735 70.4308 28.6222 69.4819 28.9809C69.3504 28.4509 69.2065 27.926 69.0501 27.406C70.1512 27.0533 71.2393 26.6959 72.2971 26.3436C72.4009 26.3092 72.4969 26.2546 72.5795 26.1831C72.6622 26.1115 72.73 26.0244 72.779 25.9267C72.828 25.8289 72.8573 25.7225 72.8652 25.6134C72.873 25.5044 72.8593 25.3948 72.8248 25.2911C72.7904 25.1873 72.7358 25.0913 72.6642 25.0087C72.5926 24.926 72.5055 24.8583 72.4077 24.8093C72.31 24.7603 72.2035 24.7311 72.0945 24.7232C71.9854 24.7154 71.8759 24.7291 71.7721 24.7636C70.7167 25.1149 69.6306 25.4694 68.5321 25.8188C67.5765 23.1132 66.2861 20.5379 64.6909 18.1527C65.3552 17.4954 66.0259 16.8447 66.6771 16.1746C66.7533 16.0963 66.8133 16.0037 66.8537 15.9022C66.8942 15.8007 66.9142 15.6922 66.9126 15.5829C66.9111 15.4736 66.8881 15.3657 66.8449 15.2654C66.8017 15.165 66.7391 15.0741 66.6608 14.9979C66.5824 14.9218 66.4898 14.8617 66.3883 14.8213C66.2868 14.7809 66.1783 14.7609 66.069 14.7624C65.9598 14.764 65.8519 14.787 65.7515 14.8302C65.6511 14.8734 65.5603 14.936 65.4841 15.0143C64.9059 15.6091 64.2964 16.1726 63.7077 16.7571C62.1364 14.6454 60.3306 12.7189 58.3247 11.0145C58.6333 9.85215 58.9516 8.69236 59.3025 7.54359C59.3349 7.43899 59.3464 7.32901 59.3362 7.21996C59.3261 7.11091 59.2945 7.00494 59.2433 6.90812C59.1921 6.8113 59.1223 6.72554 59.0379 6.65576C58.9535 6.58597 58.8562 6.53353 58.7515 6.50144C58.6467 6.46936 58.5367 6.45826 58.4277 6.46878C58.3187 6.4793 58.2128 6.51123 58.1162 6.56275C58.0195 6.61427 57.934 6.68435 57.8645 6.76899C57.795 6.85363 57.7429 6.95116 57.7112 7.05598C57.426 7.9894 57.178 8.93539 56.9192 9.87779C55.5391 8.82045 54.0813 7.86853 52.5582 7.03009C52.9837 6.10563 53.4079 5.18067 53.8182 4.25058C53.9074 4.04861 53.9128 3.81946 53.833 3.61353C53.7533 3.40761 53.5951 3.24179 53.3931 3.15255C53.1912 3.0633 52.962 3.05794 52.7561 3.13765C52.5502 3.21736 52.3843 3.37561 52.2951 3.57758C51.8988 4.47614 51.4902 5.37034 51.079 6.26351C49.3571 5.42527 47.568 4.73296 45.7304 4.19388C46.0803 3.24287 46.3824 2.2749 46.6353 1.29362C46.6888 1.0797 46.6553 0.853297 46.542 0.664125C46.4287 0.474954 46.2449 0.338484 46.0311 0.284684C45.8172 0.230884 45.5908 0.264154 45.4014 0.377187C45.2121 0.49022 45.0754 0.673775 45.0213 0.887541C44.7738 1.86125 44.4751 2.82121 44.1265 3.76344C42.6208 3.39573 41.0919 3.13064 39.5504 2.96999C39.5628 2.26089 39.5811 1.54947 39.5899 0.841901C39.5924 0.621192 39.5072 0.408503 39.353 0.250618C39.1987 0.0927333 38.9881 0.00258409 38.7674 9.68734e-09H38.7576C38.5386 -3.3389e-05 38.3284 0.0862951 38.1726 0.240257C38.0168 0.394219 37.928 0.603399 37.9254 0.82242C37.9172 1.49384 37.8975 2.16962 37.8872 2.84181C37.2634 2.80823 36.636 2.78849 36.0039 2.78849C34.0573 2.79085 32.1143 2.95766 30.1958 3.28712C29.9642 2.60412 29.7331 1.91912 29.5015 1.22235C29.4671 1.11861 29.4127 1.02266 29.3413 0.939962C29.2698 0.857268 29.1828 0.789455 29.0851 0.740395C28.9875 0.691334 28.8811 0.661988 28.7721 0.65403C28.6632 0.646072 28.5537 0.659659 28.4499 0.694016C28.3462 0.728372 28.2502 0.782825 28.1675 0.854265C28.0848 0.925705 28.017 1.01273 27.968 1.11038C27.9189 1.20803 27.8896 1.31438 27.8816 1.42337C27.8736 1.53236 27.8872 1.64185 27.9216 1.74559C28.1308 2.37522 28.3398 2.99024 28.5488 3.60885C26.4632 4.06829 24.4252 4.72206 22.4615 5.56159C22.3149 5.06629 22.1766 4.56792 22.0155 4.07826C21.9466 3.86853 21.7972 3.69478 21.6001 3.59523C21.403 3.49568 21.1745 3.47848 20.9648 3.54743C20.7551 3.61637 20.5813 3.76581 20.4818 3.96286C20.3822 4.15991 20.365 4.38844 20.434 4.59817C20.6145 5.14704 20.7745 5.70387 20.9361 6.25993C18.4992 7.4481 16.2105 8.91882 14.1173 10.6418C13.9183 10.2913 13.7061 9.94959 13.5112 9.59658C13.4586 9.50075 13.3876 9.41624 13.3023 9.34788C13.217 9.27952 13.119 9.22865 13.014 9.19818C12.909 9.16771 12.7991 9.15825 12.6904 9.17033C12.5818 9.1824 12.4766 9.21579 12.3808 9.26857C12.2851 9.32135 12.2007 9.39249 12.1325 9.47792C12.0643 9.56335 12.0136 9.66139 11.9833 9.76643C11.953 9.87148 11.9437 9.98146 11.956 10.0901C11.9683 10.1987 12.0018 10.3039 12.0548 10.3995C12.3063 10.8551 12.5772 11.2978 12.8355 11.7488C11.3787 13.076 10.0373 14.5246 8.82573 16.079C8.12079 15.7855 7.42232 15.4755 6.73552 15.1653C6.53454 15.0754 6.30611 15.0688 6.10026 15.1469C5.89441 15.2251 5.72793 15.3816 5.63728 15.5823C5.54664 15.783 5.53922 16.0114 5.61665 16.2175C5.69408 16.4236 5.85005 16.5907 6.05039 16.682C6.6265 16.942 7.21262 17.2011 7.80412 17.4539C7.17576 18.345 6.58964 19.2659 6.04577 20.2165C5.86843 19.9909 5.69103 19.7645 5.51394 19.5428C5.44585 19.4574 5.36161 19.3863 5.26603 19.3334C5.17044 19.2806 5.0654 19.2471 4.95687 19.2349C4.84835 19.2227 4.73849 19.2319 4.63355 19.2622C4.52861 19.2924 4.43065 19.343 4.34527 19.4111C4.25988 19.4792 4.18875 19.5634 4.13592 19.659C4.0831 19.7546 4.04961 19.8597 4.03739 19.9682C4.02516 20.0767 4.03443 20.1866 4.06466 20.2915C4.09489 20.3964 4.1455 20.4944 4.21359 20.5798C4.53713 20.9851 4.86098 21.3996 5.18419 21.8185C2.81376 26.5207 1.55899 31.706 1.5173 36.9718C1.27395 36.9825 1.02944 36.9836 0.78641 36.9966C0.677289 37.0025 0.570399 37.0299 0.471858 37.0771C0.373317 37.1243 0.285059 37.1905 0.212134 37.2719C0.13921 37.3533 0.0830513 37.4483 0.0468722 37.5514C0.0106931 37.6545 -0.00479651 37.7638 0.00129036 37.8729C0.00568149 37.9825 0.0320247 38.0901 0.0787602 38.1893C0.125496 38.2886 0.191673 38.3774 0.273372 38.4506C0.35507 38.5238 0.450628 38.5799 0.554386 38.6155C0.658144 38.6511 0.767991 38.6655 0.87742 38.6579C1.09842 38.6461 1.32227 38.6469 1.54377 38.6369C1.66766 41.8652 2.24716 45.0598 3.26507 48.126C2.97307 48.198 2.68556 48.2867 2.39151 48.3506C2.28448 48.3734 2.18301 48.4172 2.09292 48.4793C2.00283 48.5415 1.92589 48.6208 1.86652 48.7127C1.80715 48.8047 1.76651 48.9074 1.74694 49.0151C1.72736 49.1228 1.72923 49.2333 1.75245 49.3402C1.77566 49.4472 1.81976 49.5485 1.88221 49.6384C1.94466 49.7282 2.02424 49.8049 2.11639 49.864C2.20853 49.923 2.31142 49.9633 2.41917 49.9825C2.52692 50.0017 2.63739 49.9995 2.74427 49.9759C3.10939 49.8969 3.46638 49.7862 3.82856 49.6949C4.29458 50.8992 4.8282 52.0763 5.42687 53.2204C5.05194 53.304 4.67787 53.3932 4.3063 53.4999C4.11367 53.5554 3.94755 53.6786 3.83847 53.8467C3.72939 54.0149 3.68468 54.2168 3.71256 54.4154C3.74044 54.6139 3.83903 54.7957 3.99022 54.9273C4.14141 55.0589 4.33503 55.1316 4.53549 55.1319C4.61359 55.1322 4.69132 55.1213 4.76628 55.0993C5.26248 54.957 5.76694 54.8455 6.27473 54.7468C7.43184 56.7104 8.77979 58.5551 10.299 60.2541C9.80561 60.7151 9.30599 61.1724 8.81599 61.6354C8.73622 61.7104 8.67203 61.8003 8.62709 61.9001C8.58215 61.9999 8.55734 62.1076 8.55408 62.217C8.55083 62.3264 8.56919 62.4353 8.60812 62.5376C8.64705 62.6399 8.70579 62.7335 8.78096 62.813C8.85612 62.8926 8.94625 62.9565 9.04617 63.0012C9.1461 63.0458 9.25385 63.0703 9.36325 63.0733C9.47266 63.0762 9.58157 63.0575 9.68374 63.0183C9.78592 62.9791 9.87935 62.9201 9.95868 62.8447C10.447 62.3832 10.9495 61.9308 11.4406 61.4708C14.2251 64.3023 17.4755 66.6342 21.05 68.3645C20.8976 69.0369 20.7397 69.7084 20.5655 70.377C20.538 70.4827 20.5316 70.5928 20.5467 70.701C20.5617 70.8092 20.5979 70.9134 20.6532 71.0076C20.7086 71.1018 20.7819 71.1842 20.8691 71.25C20.9562 71.3159 21.0555 71.3639 21.1613 71.3914C21.2299 71.4101 21.3007 71.4193 21.3718 71.4188C21.5558 71.4185 21.7346 71.3573 21.8802 71.2447C22.0257 71.1321 22.1299 70.9744 22.1764 70.7964C22.3263 70.2208 22.4581 69.642 22.5924 69.0636C25.7977 70.42 29.1912 71.2795 32.6557 71.6124C32.5212 72.4069 32.3788 73.2001 32.2728 73.9984C32.244 74.2171 32.3031 74.4384 32.4371 74.6136C32.5712 74.7889 32.7693 74.9037 32.988 74.9331C33.0247 74.9377 33.0616 74.9399 33.0986 74.9398C33.3003 74.9396 33.4951 74.8661 33.6467 74.733C33.7983 74.5999 33.8964 74.4163 33.9226 74.2163C34.0329 73.3864 34.1667 72.5597 34.3097 71.7344C34.8712 71.7619 35.4357 71.7775 36.0038 71.7775C36.7056 71.7775 37.4007 71.7501 38.0923 71.7085C38.3265 72.7296 38.5737 73.7481 38.8339 74.7641C38.8612 74.87 38.9091 74.9694 38.9749 75.0568C39.0407 75.1441 39.123 75.2177 39.2172 75.2732C39.3113 75.3288 39.4155 75.3652 39.5238 75.3805C39.6321 75.3958 39.7423 75.3896 39.8482 75.3623C39.954 75.3349 40.0535 75.287 40.1409 75.2213C40.2282 75.1555 40.3018 75.0732 40.3573 74.979C40.4128 74.8848 40.4493 74.7806 40.4646 74.6724C40.4798 74.5641 40.4737 74.4539 40.4463 74.348C40.2083 73.4238 39.9819 72.4972 39.767 71.5683C42.6362 71.2558 45.4543 70.5816 48.1543 69.5617C48.4953 70.4374 48.8104 71.3247 49.0996 72.2235C49.1534 72.3914 49.2591 72.5379 49.4015 72.6419C49.5439 72.7459 49.7156 72.802 49.8919 72.8021C49.9779 72.8018 50.0634 72.7886 50.1455 72.7631C50.3557 72.6957 50.5306 72.5475 50.6316 72.3513C50.7326 72.155 50.7516 71.9266 50.6844 71.7164C50.3842 70.7773 50.0477 69.8534 49.6915 68.9387C50.7375 68.4847 51.7555 67.9811 52.7455 67.4279C52.9318 68.3393 53.1345 69.2486 53.3729 70.1526C53.4199 70.3299 53.5242 70.4868 53.6696 70.5988C53.8149 70.7108 53.9932 70.7716 54.1766 70.7719C54.2486 70.7723 54.3202 70.763 54.3896 70.7443C54.4954 70.7164 54.5946 70.6679 54.6816 70.6017C54.7686 70.5355 54.8417 70.4527 54.8967 70.3582C54.9517 70.2638 54.9876 70.1593 55.0022 70.051C55.0169 69.9426 55.01 69.8324 54.9821 69.7267C54.7024 68.6662 54.4705 67.5984 54.2658 66.527C57.1714 64.7046 59.7912 62.4619 62.0399 59.872C62.8881 60.467 63.727 61.0785 64.5828 61.6597C64.7656 61.7832 64.9899 61.8291 65.2066 61.7874C65.4232 61.7456 65.6144 61.6196 65.7383 61.437C65.8621 61.2544 65.9084 61.0301 65.867 60.8134C65.8256 60.5967 65.6998 60.4053 65.5174 60.2812C64.7051 59.7298 63.9039 59.157 63.0975 58.5943C64.4152 56.9237 65.5761 55.135 66.5653 53.2512C66.8343 53.3886 67.0988 53.5198 67.3696 53.6593C68.058 53.9698 68.6962 54.3812 69.2632 54.8798C69.4201 55.0353 69.6323 55.122 69.8532 55.1209C70.074 55.1199 70.2854 55.0312 70.4408 54.8743C70.5962 54.7174 70.6829 54.5052 70.6819 54.2843C70.6809 54.0635 70.5921 53.8521 70.4352 53.6967C69.7496 53.0758 68.9725 52.5643 68.1311 52.1801C67.8537 52.0373 67.5791 51.8976 67.3035 51.7569C67.7345 50.8286 68.1284 49.8803 68.4769 48.9099C69.4023 49.7464 70.335 50.5466 71.2381 51.3203C71.3212 51.3913 71.4174 51.4454 71.5213 51.4793C71.6252 51.5132 71.7348 51.5263 71.8438 51.5178C71.9528 51.5093 72.059 51.4795 72.1564 51.43C72.2539 51.3805 72.3406 51.3122 72.4117 51.2292C72.4828 51.1462 72.5368 51.0499 72.5707 50.946C72.6046 50.8421 72.6177 50.7325 72.6092 50.6236C72.6008 50.5146 72.5709 50.4083 72.5214 50.3109C72.4719 50.2134 72.4037 50.1267 72.3206 50.0556C71.2479 49.1371 70.1371 48.1742 69.0495 47.162C69.6528 45.1507 70.0697 43.0881 70.295 41.0003C71.4142 41.2305 72.5316 41.4735 73.6446 41.7448C73.7507 41.7707 73.8608 41.7755 73.9688 41.7589C74.0767 41.7422 74.1803 41.7045 74.2737 41.6478C74.3671 41.5911 74.4484 41.5166 74.5129 41.4285C74.5775 41.3404 74.6241 41.2404 74.65 41.1343C74.6759 41.0282 74.6807 40.9181 74.6641 40.8101C74.6474 40.7022 74.6097 40.5986 74.553 40.5052C74.4963 40.4118 74.4218 40.3306 74.3337 40.266C74.2456 40.2014 74.1457 40.1548 74.0396 40.1289ZM69.6278 37.283C69.6278 37.9103 69.6073 38.5328 69.5732 39.1516C65.6134 38.3682 61.6106 37.8198 57.586 37.5091C60.8264 34.5017 64.9516 32.54 69.0199 30.9421C69.4227 33.0317 69.6262 35.1549 69.6278 37.283ZM68.6614 29.2959C63.9196 31.1305 59.046 33.4224 55.3916 37.2976C55.3726 37.3239 55.3555 37.3515 55.3402 37.3802C51.0959 37.1489 46.8413 37.1824 42.6012 37.4806C42.5722 37.0896 42.4968 36.7033 42.3765 36.3301C45.3324 34.3673 48.2178 32.3021 51.033 30.1342C51.1481 30.2177 51.2833 30.2693 51.4247 30.2837C52.179 30.3455 52.9332 30.3732 53.6857 30.3732C58.6392 30.2106 63.5396 29.2996 68.2206 27.6711C68.3809 28.2072 68.5278 28.7488 68.6614 29.2959ZM67.7021 26.0816C62.9727 27.5503 57.9177 28.7993 52.8866 28.6637C56.7738 25.5586 60.4983 22.2643 64.0601 18.7809C65.5668 21.0571 66.7899 23.5088 67.7021 26.0816ZM63.0788 17.3742C60.6998 19.7068 58.2661 21.9844 55.7348 24.1527C56.2702 20.0419 57.0519 15.9669 58.0756 11.9497C59.9357 13.5705 61.6134 15.3894 63.0788 17.3742ZM56.6647 10.7848C55.3815 15.6086 54.4484 20.5189 53.8727 25.4771C53.8678 25.5553 53.8744 25.6337 53.8923 25.7099C51.5688 27.6349 49.1887 29.4879 46.7522 31.2687C47.8406 26.9645 49.2373 22.7443 50.9314 18.6407C51.0159 18.4368 51.0159 18.2076 50.9314 18.0037C50.847 17.7998 50.685 17.6378 50.4811 17.5533C50.3801 17.5115 50.2719 17.4899 50.1626 17.4899C50.0533 17.4899 49.9451 17.5114 49.8441 17.5532C49.6402 17.6377 49.4782 17.7997 49.3937 18.0036C47.4134 22.7825 45.8305 27.7166 44.661 32.7556C43.6561 33.4621 42.6422 34.1553 41.6194 34.835C40.8686 33.8446 39.8012 33.1412 38.5948 32.842C38.6088 32.5582 38.616 32.2703 38.6298 31.9862C38.7688 31.9234 38.8874 31.823 38.9722 31.6963C43.9329 24.0586 48.352 16.0824 52.1969 7.82638C53.7623 8.69238 55.2563 9.68166 56.6647 10.7848ZM50.7157 7.05523C47.2002 14.5819 43.2055 21.8752 38.7562 28.8904C38.9695 24.1371 39.1473 19.3755 39.2897 14.6057C39.3029 14.5944 39.3194 14.5908 39.3322 14.5785L39.4525 14.4601C42.0255 11.7181 44.0546 8.51275 45.4322 5.01408C47.248 5.54352 49.0155 6.22636 50.7157 7.05523ZM43.8029 4.58182C42.713 7.29115 41.2092 9.81487 39.345 12.0628C39.4146 9.32125 39.4777 6.58207 39.5342 3.84529C40.9715 3.99808 42.3974 4.24411 43.8029 4.58182ZM36.0039 3.6589C36.6306 3.6589 37.2524 3.67941 37.8708 3.71351C37.7826 9.06206 37.6462 14.4233 37.4615 19.7973C34.5374 14.8585 32.1947 9.59787 30.4803 4.12035C32.3057 3.81516 34.1532 3.66082 36.0039 3.6589ZM28.8278 4.43774C31.1205 11.152 33.5155 17.214 37.3426 22.644L37.3453 22.6463C37.2189 25.9945 37.1002 29.3459 36.9355 32.6728C36.1729 32.7037 35.4252 32.8934 34.7402 33.2298C34.0552 33.5662 33.448 34.042 32.9574 34.6265C32.5561 34.2487 32.1583 33.8677 31.7639 33.4837C31.8075 33.3826 31.8305 33.274 31.8316 33.164C31.9088 25.6171 31.5365 17.6767 28.3133 10.7443C28.2672 10.6452 28.2021 10.5561 28.1215 10.4821C28.041 10.4081 27.9467 10.3507 27.844 10.3132C27.7413 10.2757 27.6322 10.2588 27.523 10.2634C27.4137 10.2681 27.3065 10.2942 27.2073 10.3403C27.1082 10.3863 27.0191 10.4515 26.9451 10.532C26.8711 10.6126 26.8138 10.7069 26.7762 10.8096C26.7387 10.9123 26.7218 11.0214 26.7264 11.1306C26.7311 11.2398 26.7572 11.3471 26.8033 11.4463C29.7143 17.7057 30.1877 24.929 30.1688 31.9024C28.1422 29.8438 26.2093 27.7048 24.3702 25.4853C24.4381 25.379 24.4801 25.2581 24.4927 25.1326C25.0067 18.8332 24.4046 12.4926 22.7144 6.40256C24.6842 5.55236 26.7315 4.89436 28.8278 4.43774ZM21.1829 7.11137C22.6444 12.5129 23.2273 18.1143 22.9095 23.701C19.8326 19.8099 17.0422 15.7006 14.5603 11.4055C16.5921 9.71982 18.8149 8.27858 21.1829 7.11137ZM13.2833 12.523C14.236 14.1535 15.2162 15.7658 16.252 17.3388C14.7728 17.5932 13.2556 17.5171 11.8093 17.116C11.083 16.9235 10.3685 16.6891 9.6693 16.4138C10.7704 15.0244 11.9788 13.7235 13.2833 12.523ZM8.62573 17.8C9.52832 18.1703 10.4545 18.4804 11.3981 18.7283C12.4708 19.0108 13.5746 19.1582 14.6839 19.1672C15.5563 19.1699 16.4251 19.0553 17.267 18.8265C21.5609 25.1116 26.533 30.9054 32.0937 36.1035C31.9948 36.3537 31.9164 36.6116 31.8594 36.8746C30.1321 37.101 28.3911 37.2448 26.6425 37.3176C26.6287 37.2294 26.6003 37.1441 26.5586 37.0651C23.717 32.0927 20.029 27.6547 15.6608 23.951C15.5776 23.8801 15.4812 23.8262 15.3772 23.7926C15.2731 23.7589 15.1635 23.7461 15.0545 23.7549C14.9455 23.7637 14.8393 23.7938 14.742 23.8437C14.6447 23.8935 14.5581 23.962 14.4873 24.0453C14.4165 24.1287 14.3628 24.2251 14.3293 24.3292C14.2958 24.4333 14.2831 24.5429 14.292 24.6519C14.3009 24.7609 14.3312 24.867 14.3812 24.9643C14.4311 25.0615 14.4998 25.148 14.5832 25.2187C18.6404 28.6689 22.0889 32.7764 24.7846 37.3696C21.2948 37.433 17.7946 37.2917 14.3562 37.1443C13.5965 31.0356 10.1845 25.5958 6.62213 20.9597C7.23097 19.8702 7.89985 18.8153 8.62573 17.8ZM5.76895 22.5853C8.96012 26.8277 11.9178 31.7165 12.6641 37.0746C9.27481 36.9333 5.82042 36.8316 2.38852 36.9423C2.43169 31.9646 3.58665 27.0594 5.76895 22.5853ZM2.41352 38.6091C6.33263 38.4807 10.3136 38.6358 14.1809 38.8027C15.8191 38.8732 17.473 38.9378 19.1329 38.987C15.0085 43.2447 9.82253 46.3245 4.1103 47.9086C3.10702 44.9048 2.53571 41.7737 2.41352 38.6091ZM4.67741 49.4749C11.0567 47.6936 16.7976 44.1341 21.2296 39.2121C21.2742 39.1555 21.3109 39.093 21.3387 39.0265C21.9218 39.0352 22.5025 39.0578 23.0867 39.0578C26.0092 39.0737 28.9299 38.906 31.8314 38.5556C31.9346 39.303 32.2051 40.0175 32.623 40.6457C27.8613 44.5671 23.1641 48.5978 18.5316 52.738C18.4582 52.7106 18.3821 52.6909 18.3047 52.679C17.136 52.7002 15.9558 52.6759 14.7767 52.6513C11.9504 52.51 9.11711 52.6429 6.31649 53.0481C5.70065 51.8902 5.15335 50.697 4.67741 49.4749ZM7.1855 54.5848C9.69367 54.2882 12.222 54.1983 14.7449 54.3158C15.4144 54.3287 16.0827 54.3256 16.7511 54.3315C14.7951 56.0953 12.8568 57.8717 10.9361 59.6608C9.53033 58.0895 8.27467 56.39 7.1855 54.5848ZM12.0787 60.8791C15.5313 57.6589 19.0379 54.4797 22.5984 51.3413C22.8214 56.7578 22.3652 62.181 21.2404 67.4841C17.8376 65.8121 14.7404 63.5792 12.0787 60.8791ZM22.7954 68.2004C24.0613 62.4031 24.5463 56.4626 24.2375 50.5368C24.2237 50.3708 24.1602 50.2127 24.0552 50.0833C25.5043 48.8222 26.9528 47.5602 28.4151 46.3188C29.1714 50.7196 29.4722 55.1866 29.313 59.6491C29.3047 59.8696 29.3844 60.0844 29.5345 60.2463C29.6846 60.4081 29.8929 60.5037 30.1135 60.512H30.1452C30.3604 60.5119 30.5672 60.4284 30.7221 60.279C30.877 60.1296 30.9679 59.9259 30.9758 59.7108C31.1507 54.9455 30.814 50.1751 29.9712 45.4815C29.9472 45.359 29.895 45.2438 29.8187 45.1449C31.131 44.0398 32.4476 42.9435 33.7685 41.8563C34.1299 42.1444 34.5265 42.3854 34.9487 42.5733C34.9213 45.1265 34.9661 47.6778 35.0965 50.224C35.0008 50.3706 34.955 50.5442 34.966 50.719C34.977 50.8937 35.0441 51.0602 35.1574 51.1936C35.3212 53.9706 35.5782 56.7388 35.9283 59.4983C35.8502 59.5802 35.79 59.6775 35.7514 59.7839C34.4614 63.3504 33.4722 67.0187 32.7941 70.7502C29.3491 70.4239 25.9759 69.5637 22.7954 68.2004ZM36.0039 70.9071C35.489 70.9071 34.9779 70.891 34.4685 70.8681C34.9631 68.2209 35.6162 65.6057 36.4241 63.0367C36.8339 65.6547 37.3277 68.2591 37.9055 70.8499C37.2756 70.885 36.6424 70.9071 36.0039 70.9071ZM39.5781 70.7151C38.2566 64.8357 37.3712 58.8666 36.9292 52.8567C41.6369 57.3323 45.3468 62.7513 47.8162 68.7593C45.1644 69.7586 42.396 70.4159 39.5781 70.7151ZM49.3608 68.133C46.5784 61.3531 42.2731 55.3045 36.7782 50.4553C36.6447 47.9721 36.5889 45.4849 36.6108 42.9935C37.7231 43.1701 38.8621 42.9513 39.8298 42.3752C43.7766 45.8838 47.8485 49.27 52.0456 52.5336C52.014 52.6015 51.9921 52.6735 51.9806 52.7475C51.5284 57.3447 51.7269 61.9828 52.5705 66.5245C51.5301 67.1176 50.4587 67.6546 49.3608 68.133ZM54.0918 65.605C53.4213 61.6703 53.2486 57.6668 53.5776 53.6889C56.1245 55.637 58.7136 57.5223 61.3244 59.3692C59.22 61.7788 56.785 63.8783 54.0918 65.605ZM62.3825 58.0961C57.2427 54.4798 52.2207 50.6525 47.3694 46.6386C53.617 47.1031 59.4883 49.6696 65.7891 52.8575C64.8181 54.7053 63.6777 56.4591 62.3825 58.0961ZM66.5271 51.3614C59.6065 47.8545 53.1823 45.0566 46.1021 44.8754C45.8922 44.883 45.6908 44.9607 45.5301 45.0961C44.0699 43.8632 42.6247 42.6161 41.1947 41.3547C41.7888 40.7388 42.2186 39.9835 42.4447 39.1582C48.678 38.701 54.9404 38.8248 61.1508 39.5278C61.1571 39.5871 61.1701 39.6454 61.1895 39.7017C62.7878 42.9684 65.0288 45.8791 67.7784 48.2594C67.4134 49.3136 66.9958 50.3489 66.5271 51.3614ZM68.336 46.4894C66.2306 44.5574 64.4599 42.2899 63.096 39.779C65.2185 40.0625 67.333 40.4128 69.4394 40.8298C69.2356 42.7446 68.8664 44.6382 68.336 46.4894Z" fill="#008850"/>
</svg>
