<svg width="34" height="34" viewBox="0 0 34 34" fill="none" xmlns="http://www.w3.org/2000/svg">
<g clip-path="url(#clip0_673_4)">
<path d="M15.62 22.11C15.85 22.44 15.95 22.62 15.99 22.83C16.07 23.2 16.03 24.35 15.89 25.4C15.73 26.69 15.54 28.29 15.5 28.95C15.4 30.49 15.66 32.3 16.12 33.03C16.24 33.26 16.31 33.3 16.37 33.3C16.39 33.3 16.43 33.3 16.43 33.28C16.43 33.28 16.47 33.24 16.29 32.83C16.17 32.58 16.06 32.28 16 31.97C15.65 30.41 15.67 29.28 16.08 25.98C16.35 23.95 16.39 23.21 16.24 22.65C16.22 22.55 16.08 22.28 15.93 22.1C15.54 21.53 15.5 21.42 15.48 20.95C15.46 20.44 15.6 19.9 15.93 19.25C16.2 18.72 16.4 18.49 16.65 18.49C16.77 18.49 16.81 18.49 16.92 18.61C17.11 18.84 17.27 19.21 17.5 19.84L17.71 20.41V21.05C17.71 21.91 17.59 22.38 17.13 23.7C16.62 25.22 16.51 25.57 16.41 26.06C16.12 27.52 16 29.84 16.18 30.8C16.32 31.56 16.78 33.02 16.94 33.2C16.96 33.22 17.02 33.28 17.08 33.26C17.12 33.24 17.14 33.18 17 32.79C16.81 32.3 16.47 31.07 16.4 30.66C16.21 29.35 16.36 27.25 16.71 25.77C16.77 25.48 16.96 24.93 17.1 24.5C17.45 23.51 17.59 23.06 17.72 22.63C17.82 22.22 17.95 21.46 17.95 21.21V21.15C18.07 21.42 18.4 22.63 18.67 23.98C18.86 24.86 18.98 25.6 18.98 25.66C18.98 25.99 18.82 26.46 18.47 27.2C17.96 28.27 17.89 28.51 17.85 29.66C17.85 30.36 17.85 30.6 17.89 30.85C18.14 31.94 18.24 32.43 18.28 32.76C18.32 33.09 18.36 33.21 18.44 33.23C18.48 33.23 18.5 33.23 18.54 33.19C18.58 33.15 18.6 33.05 18.35 31.94L18.12 30.79V29.8C18.12 28.59 18.18 28.32 18.65 27.32C18.94 26.72 19.08 26.38 19.12 26.19C19.18 26.35 19.24 26.6 19.28 26.74L19.47 27.4L19.12 27.75C18.46 28.41 18.26 29.02 18.3 30.32C18.32 31.04 18.59 33.01 18.69 33.13C18.73 33.15 18.77 33.13 18.81 33.11C18.87 33.05 18.75 32.04 18.71 31.96C18.65 31.82 18.55 30.56 18.55 30.03C18.55 29.07 18.76 28.47 19.25 27.96C19.37 27.84 19.48 27.73 19.52 27.69C19.58 27.85 19.81 28.45 20.12 29.31C20.59 30.71 20.8 31.34 21.15 32.51C21.15 32.57 21.23 32.63 21.29 32.63C21.33 32.63 21.35 32.63 21.37 32.59C21.41 32.55 21.39 32.49 21.37 32.45C21.31 32.12 20.77 30.4 20.2 28.69C19.85 27.68 19.48 26.51 19.38 26.14C19.26 25.71 18.91 24.15 18.72 23.29C19.11 24.44 19.93 26.98 20.08 27.54C20.41 28.75 21.54 32.38 21.75 32.38C21.79 32.38 21.83 32.36 21.83 32.34C21.87 32.28 21.83 32.16 21.69 31.74C21.59 31.47 21.3 30.67 21.09 30C20.84 29.28 20.7 28.85 20.74 28.81C20.76 28.81 20.88 28.87 21.01 28.93C21.67 29.28 22.43 30.37 22.78 31.48C22.92 31.89 22.94 31.95 23.03 31.95C23.07 31.95 23.09 31.89 23.11 31.89C23.15 31.79 22.84 30.9 22.7 30.62C22.12 29.49 21.44 28.73 20.85 28.61L20.64 28.55L20.56 28.26C20.52 28.1 20.44 27.87 20.42 27.79C20.42 27.73 20.4 27.69 20.4 27.67C20.48 27.67 20.79 27.81 21.12 28.04C21.78 28.47 22.38 29.23 22.89 30.26C23.16 30.79 23.4 31.53 23.4 31.68C23.4 31.78 23.46 31.82 23.52 31.82C23.56 31.82 23.58 31.82 23.6 31.78C23.7 31.62 23.44 30.86 23.11 30.18C22.43 28.78 21.57 27.86 20.64 27.53L20.33 27.43L20.19 26.94C20.11 26.65 19.78 25.61 19.45 24.64C19.18 23.84 18.89 22.96 18.75 22.48L18.67 22.23C18.46 21.57 18.09 20.12 18.03 19.83C18.11 19.85 18.3 19.95 18.5 20.1C18.73 20.26 19.01 20.61 19.22 20.96C19.36 21.21 19.57 21.84 19.75 22.58C20.1 23.96 20.68 25.29 21.23 26.03C21.58 26.48 22.69 27.77 23.25 28.33C23.99 29.09 24.51 29.85 24.77 30.57C24.81 30.67 24.93 31.02 25.02 31.04H25.1C25.1 31.04 25.18 30.96 24.94 30.36C24.67 29.68 24.12 28.88 23.38 28.1C22.87 27.57 22.1 26.7 21.67 26.17C20.95 25.29 20.44 24.14 20.02 22.5C19.92 22.11 19.79 21.66 19.75 21.49C19.44 20.59 18.93 19.93 18.23 19.62L17.98 19.5L17.9 19.13C17.8 18.64 17.76 18.02 17.82 17.82C17.84 17.74 17.92 17.61 17.96 17.55H18.45C18.72 17.61 19.83 18.39 20.16 18.74C20.55 19.13 20.9 19.66 20.98 19.97C21.08 20.3 21.08 20.93 20.98 21.39C20.69 22.66 21.1 23.52 23.08 25.76C24.58 27.46 24.91 27.83 25.28 28.28C25.67 28.77 26.1 29.37 26.33 29.78C26.43 29.96 26.49 30.05 26.58 30.07C26.62 30.07 26.66 30.05 26.68 30.03C26.84 29.87 25.67 28.33 25.01 27.57C24.74 27.26 24.15 26.58 23.69 26.07C22.02 24.2 21.43 23.36 21.22 22.56C21.14 22.19 21.14 21.92 21.24 21.37C21.32 21 21.32 20.8 21.32 20.47C21.3 19.98 21.2 19.67 20.95 19.32V19.28L21.11 19.42C21.4 19.65 21.54 19.77 21.64 19.95C21.83 20.26 21.95 20.69 21.95 21C21.95 21.23 21.95 21.27 21.7 21.62C21.39 22.07 21.33 22.28 21.37 22.54C21.41 22.95 21.6 23.2 22.63 24.31C22.96 24.68 23.54 25.3 23.95 25.73C25.43 27.27 26.77 28.77 27.1 29.3C27.14 29.34 27.24 29.51 27.31 29.53C27.37 29.53 27.41 29.53 27.43 29.49C27.47 29.43 27.43 29.31 27.22 29.04C26.66 28.28 25.94 27.48 24.38 25.84C23.89 25.31 23.33 24.73 23.12 24.51C22.98 24.37 22.81 24.18 22.65 24C22.55 23.88 22.44 23.77 22.38 23.69C21.99 23.26 21.7 22.85 21.64 22.62C21.56 22.35 21.64 22.23 22.11 21.53C22.23 21.35 22.25 21.3 22.23 20.98C22.23 20.69 22.17 20.49 21.98 20.1C22.39 20.35 23.89 21.35 24.65 21.91L25.33 22.4L25.29 22.58C25.21 22.99 25.25 23.46 25.39 23.83C25.68 24.63 26.4 25.7 27.39 26.77C27.74 27.14 28.79 28.1 28.93 28.1C28.99 28.1 29.03 28.06 29.03 28.02C29.03 27.96 29.03 27.9 28.95 27.88C28.85 27.84 28 27.1 27.65 26.71C26.25 25.17 25.51 23.9 25.51 23.04C25.51 22.86 25.53 22.67 25.55 22.63V22.61C25.55 22.61 25.71 22.71 25.86 22.79L26.17 23.02V23.35C26.21 24.11 26.68 25.05 27.61 26.2C27.98 26.67 29.07 27.74 29.21 27.74C29.23 27.74 29.31 27.74 29.33 27.68C29.33 27.62 29.29 27.56 29.12 27.43C28.54 26.98 27.7 26.05 27.23 25.36C26.92 24.91 26.59 24.27 26.49 23.92C26.39 23.61 26.37 23.28 26.39 23.2C26.45 23.2 26.8 23.49 27.62 24.08C28.07 24.41 30.38 26.09 30.48 26.09C30.52 26.09 30.56 26.07 30.56 26.01C30.56 25.93 30.54 25.83 30.46 25.78C30.38 25.72 28.16 23.97 26.53 22.68C25.97 22.23 25.65 21.96 25.6 21.88C25.76 21.82 26.79 21.8 27.2 21.88C27.61 21.96 28.33 22.17 28.85 22.37C29.53 22.64 30.83 23.38 31.42 23.83C31.63 23.97 31.69 23.97 31.73 23.95C31.75 23.95 31.77 23.91 31.77 23.87C31.77 23.79 31.67 23.71 31.03 23.27C29.65 22.37 28.4 21.81 27.31 21.63C26.75 21.55 25.89 21.53 25.54 21.63L25.31 21.67L24.88 21.34C24.67 21.18 24.51 21.05 24.47 20.99C24.51 20.99 24.61 20.95 24.74 20.91C24.97 20.85 25.23 20.83 25.65 20.83C26.64 20.83 27.23 21.06 28.94 21.98C30.13 22.64 30.59 22.86 31.18 23.07C32.02 23.36 32.09 23.25 32.11 23.21V23.13C32.07 23.07 31.92 23.01 31.8 23.01C31.61 23.01 30.73 22.7 30.28 22.48C30.05 22.38 29.46 22.05 28.92 21.76C27.25 20.84 26.74 20.65 25.73 20.63C25.24 20.63 25.01 20.63 24.74 20.69C24.34 20.77 24.06 20.76 23.9 20.65C23.55 20.38 22.01 19.34 21.51 19.01C20.63 18.44 19.64 17.72 19.41 17.47C19.18 17.24 19.18 17.2 19.18 17.08C19.18 16.9 19.26 16.83 20 16.77C21.3 16.67 22.47 16.89 23.09 17.41C23.38 17.64 24.22 18.52 24.43 18.83C24.66 19.14 25.13 19.53 25.48 19.67C25.73 19.77 26.49 19.98 27 20.06C28.07 20.24 32.91 20.53 33.01 20.27V20.23C33.01 20.23 32.93 20.17 32.02 20.17C30.52 20.17 27.68 19.96 26.79 19.8C25.66 19.57 25.08 19.27 24.63 18.65C24.36 18.3 23.33 17.27 23.05 17.09C22.72 16.88 22.41 16.76 21.94 16.66H22.02C22.41 16.66 22.6 16.66 22.95 16.76C23.42 16.88 24.16 17.23 24.51 17.5C24.65 17.6 24.98 17.85 25.25 18.05C25.85 18.48 26.36 18.77 26.92 18.99C27.7 19.3 28.03 19.36 30.29 19.65L30.78 19.71C32.96 19.98 33 19.98 33.06 19.92C33.08 19.9 33.06 19.86 33.06 19.84C33.04 19.74 32.94 19.72 32.71 19.7C32.52 19.7 32.15 19.64 31.85 19.6H31.69C31.34 19.54 30.81 19.48 30.37 19.44C27.57 19.15 26.5 18.8 25.18 17.74C24.5 17.21 23.74 16.78 23.18 16.63H23.49C24.15 16.59 27.03 16.63 27.38 16.67C27.54 16.69 27.57 16.69 27.63 16.88C27.84 17.29 28.31 17.74 28.91 18.03C29.34 18.24 30.29 18.54 30.93 18.67C31.55 18.77 32.74 18.88 33.05 18.83C33.19 18.81 33.32 18.77 33.32 18.69C33.32 18.67 33.32 18.63 33.3 18.63C33.26 18.59 33.2 18.59 32.97 18.63C32.41 18.69 30.89 18.49 30.11 18.26C28.96 17.93 28.28 17.5 27.93 16.88C27.91 16.84 27.89 16.8 27.87 16.78C27.91 16.78 28.08 16.78 28.28 16.84H28.32C29.16 17 30.48 17.07 31.59 17.05C33.3 17.01 33.46 16.97 33.5 16.87V16.81C33.5 16.81 33.46 16.77 33.34 16.77C33.42 16.75 33.46 16.71 33.48 16.67V16.59C33.44 16.53 33.36 16.53 32.7 16.55C31.92 16.59 30.83 16.51 29.72 16.37C29.43 16.33 29 16.27 28.73 16.25C28.48 16.21 28.15 16.19 28.03 16.19H27.87C27.93 16.13 28.14 15.96 28.36 15.86C29 15.57 29.84 15.63 31.98 16.15C33.38 16.48 33.46 16.4 33.5 16.36C33.5 16.36 33.52 16.32 33.5 16.3C33.5 16.24 33.44 16.2 33.38 16.2C33.05 16.16 32.27 15.99 31.61 15.85C30.35 15.54 29.41 15.42 28.87 15.52C28.44 15.58 27.94 15.81 27.76 16.05L27.62 16.21L26.78 16.17C26.37 16.17 26.08 16.13 25.98 16.13C26.04 16.03 26.27 15.82 26.47 15.72C27.15 15.35 28.12 15.19 29.25 15.23C30.22 15.27 30.55 15.31 32.13 15.76C33.45 16.13 33.51 16.13 33.55 16.07C33.55 16.07 33.55 16.01 33.53 15.99C33.47 15.91 31.12 15.25 30.88 15.21C30.2 15.07 29.6 15 28.97 15C27.41 15 26.32 15.37 25.76 16.05L25.66 16.17L24.47 16.21C23.85 16.23 23.01 16.29 22.66 16.33C22.29 16.37 21.8 16.43 21.47 16.47C20.26 16.61 19.74 16.51 19.64 16.37C19.6 16.31 19.64 16.12 20.4 15.51C21.47 14.63 22.89 14.05 24.43 13.87C25.03 13.79 26.14 13.77 27.99 13.81C28.85 13.81 29.18 13.81 29.57 13.75C30.62 13.59 31.55 13.28 32.41 12.85C32.97 12.56 32.99 12.54 32.99 12.52C33.01 12.48 32.99 12.42 32.95 12.38C32.87 12.32 32.76 12.38 32.56 12.48C31.8 12.95 30.58 13.34 29.45 13.53C29 13.59 28.75 13.59 27.68 13.57C24.63 13.47 23.32 13.63 21.88 14.31C21.84 14.33 21.8 14.35 21.76 14.37C22.21 14.06 23.36 13.57 24.06 13.38C24.62 13.26 25.56 13.15 26.55 13.11C28.61 13.03 29.97 12.64 31.26 11.8C31.26 11.8 32.39 11.02 32.39 10.88C32.39 10.82 32.37 10.8 32.35 10.78C32.29 10.76 32.19 10.78 32 10.96C31.47 11.41 30.44 12.01 29.67 12.31C28.74 12.68 28.04 12.8 26.54 12.86C24.59 12.94 23.74 13.11 22.42 13.72C22.52 13.6 22.75 13.37 23.2 12.94C24.33 11.81 24.48 11.73 24.99 11.69C25.28 11.69 25.3 11.69 26.33 12.06C27.15 12.37 28.04 12.14 29.27 11.32C29.83 10.95 30.34 10.48 30.92 9.78C31.17 9.47 31.43 9.18 31.5 9.12C31.58 9.04 31.6 8.96 31.58 8.89C31.58 8.89 31.54 8.83 31.44 8.85C31.38 8.85 30.91 9.4 30.82 9.51C30.51 9.86 30.1 10.29 29.91 10.47C29.25 11.07 28.24 11.66 27.56 11.82C26.98 11.96 26.74 11.94 26.04 11.64C25.44 11.39 25.11 11.33 24.76 11.41H24.66C25.32 10.75 25.73 10.32 25.83 10.24C25.83 10.61 26.18 10.98 26.69 11.14C26.98 11.22 27.12 11.22 27.49 11.14C27.96 11.06 29.03 10.48 29.67 9.95C30.02 9.66 31.19 8.53 31.19 8.39C31.19 8.35 31.19 8.31 31.15 8.29H31.09C31.09 8.29 30.6 8.74 30.31 9.03C29.73 9.58 29.47 9.81 29.03 10.12C28.08 10.74 27.63 10.94 27.12 10.94C26.5 10.94 26.05 10.59 26.05 10.12V9.94L27.26 8.75C27.88 8.13 28.74 7.33 29.07 7.05C29.75 6.48 29.85 6.37 29.85 6.29C29.85 6.27 29.85 6.25 29.83 6.23C29.75 6.15 29.67 6.19 28.74 7.03C28.49 7.26 28.23 7.48 28.04 7.67C28.18 7.49 28.35 7.28 28.43 7.18C28.84 6.67 29.25 6.17 29.34 6.07C29.4 5.99 29.48 5.86 29.44 5.8C29.44 5.76 29.4 5.74 29.38 5.72H29.32C29.32 5.72 29.24 5.76 28.31 6.91C27.4 8.04 26.75 8.8 26.11 9.46C25.74 9.83 25.39 10.16 25.33 10.2L25.27 10.24V10.06C25.33 9.55 25.46 9.2 25.74 8.6C25.93 8.23 26.15 7.86 26.4 7.53C26.81 6.98 27.84 5.87 28.33 5.42C28.66 5.13 28.72 5.03 28.68 4.97C28.68 4.95 28.64 4.91 28.58 4.91C28.46 4.91 26.58 6.84 26.36 7.13C25.56 8.14 25.08 9.2 25 10.17V10.52L24.3 11.12C23.93 11.45 23.19 12.13 22.65 12.64C22.42 12.87 22.2 13.07 22.01 13.26C21.76 13.49 21.6 13.65 21.56 13.69V13.65C21.62 13.53 21.7 13.26 21.75 13.08C21.96 12.09 22.06 11.73 22.41 10.78C23.19 8.71 24.39 6.96 26.18 5.3C27.35 4.19 27.54 3.99 27.52 3.88C27.52 3.84 27.5 3.82 27.46 3.82C27.3 3.76 24.66 6.49 24.41 6.82C23.85 7.52 23.15 8.59 22.83 9.24C22.3 10.29 21.8 11.66 21.6 12.69C21.46 13.41 21.33 13.76 21.17 14.02C20.96 14.35 19.22 15.99 18.89 16.15C18.62 16.29 18.46 16.33 18.33 16.29C18.27 16.27 18.21 16.21 18.17 16.13C18.01 15.76 18.17 15.31 19.05 13.67C19.44 12.95 20.2 11.8 20.74 11.15C22.24 9.28 22.63 8.73 23.15 7.68C23.5 6.98 23.66 6.51 23.89 5.59C24.18 4.46 24.61 3 24.77 2.59C24.91 2.26 24.91 2.18 24.85 2.14C24.81 2.12 24.73 2.14 24.69 2.18C24.59 2.32 24.34 3.02 24.09 3.95C23.99 4.32 23.84 4.79 23.74 5.14L23.66 5.45C23.56 5.78 23.43 6.27 23.37 6.5C23.25 6.93 22.84 7.81 22.53 8.33C22.24 8.8 21.73 9.52 20.8 10.65C19.77 11.94 19.26 12.72 18.58 14.02C18.39 14.35 18.27 14.62 18.19 14.76C18.23 14.37 18.4 13.61 18.48 13.43C18.71 12.9 19.39 11.95 20.17 11.11C21.18 10.04 21.61 9.43 22.04 8.46C22.27 7.95 22.84 6.3 23.17 5.2C23.48 4.21 24.26 2.2 24.38 2.08C24.44 2.02 24.44 1.98 24.42 1.94C24.42 1.92 24.38 1.88 24.3 1.88C24.18 1.88 24.11 2 23.68 3.05C23.54 3.38 23.02 4.82 22.92 5.16C22.61 6.17 22.08 7.73 21.91 8.12C21.5 9.08 21.03 9.78 20.16 10.71C19.42 11.49 18.95 12.09 18.58 12.68C18.6 12.54 18.64 12.29 18.7 11.98C19.05 10.3 19.58 8.96 20.61 7.24C21.47 5.82 21.76 5.11 22.26 3.4C22.66 2.02 22.83 1.3 22.77 1.24C22.77 1.24 22.71 1.2 22.69 1.2H22.65C22.65 1.2 22.59 1.26 22.24 2.66C21.81 4.36 21.31 5.66 20.59 6.83C19.85 8.06 19.5 8.74 19.19 9.6C19.19 9.56 19.21 9.5 19.23 9.44C19.33 8.99 19.44 8.76 19.76 8.09V8.07C20.09 7.44 20.37 6.74 20.6 5.98L20.64 5.82C21.05 4.44 21.2 3.95 21.5 2.54C21.77 1.27 21.79 1.08 21.75 1.02C21.75 1.02 21.71 0.979999 21.69 0.979999C21.61 0.979999 21.57 1.08 21.5 1.47C21.13 3.63 20.18 6.75 19.57 7.94C19.57 7.82 19.61 7.65 19.65 7.45C19.88 6.18 20.08 4.66 20.21 3.34C20.29 2.46 20.31 2.31 20.46 1.37C20.56 0.819999 20.56 0.709999 20.48 0.669999C20.44 0.649999 20.38 0.689999 20.36 0.709999C20.3 0.769999 20.2 1.22 20.09 1.8C20.15 1.27 20.21 0.689999 20.21 0.629999C20.21 0.629999 20.21 0.569999 20.09 0.569999C19.97 0.569999 19.97 0.669999 19.93 1.1C19.87 1.92 19.72 2.97 19.5 4.28C19.19 5.96 19.07 6.62 19.01 6.72C18.95 6.7 18.82 6.54 18.7 6.29C18.54 5.94 18.41 5.41 18.33 4.71C18.21 3.7 18.25 0.929999 18.37 0.419999V0.299999C18.37 0.299999 18.31 0.259999 18.27 0.259999C18.11 0.259999 18.11 0.34 18.02 2.23C17.92 4.84 18.23 6.54 18.84 6.91C18.9 6.95 18.94 6.99 18.96 7.01C18.96 7.07 18.9 7.36 18.88 7.52C18.86 7.7 18.84 7.83 18.82 7.89C18.66 7.79 18.43 7.81 18.06 7.95C17.67 8.11 17.57 8.09 17.46 7.99C17.21 7.74 17.07 7.17 16.97 6.02C16.91 5.26 16.89 1.98 16.95 0.929999L16.99 0.169999H16.76C16.62 0.129999 16.57 0.169999 16.55 0.169999C16.55 0.169999 16.53 0.209999 16.53 0.229999C16.53 0.369999 16.39 2.32 16.28 3.49C15.95 7.21 16.3 8.74 17.62 9.42C18.11 9.67 18.24 9.83 18.32 10.3C18.44 10.92 18.38 11.24 17.99 12.58C17.74 13.36 17.56 13.85 17.33 13.89C17.12 13.91 16.84 13.54 16.55 13.11C16.43 12.93 16.24 12.62 16.16 12.43C16.06 12.25 15.83 11.79 15.63 11.47C15.28 10.85 14.75 9.75 14.4 8.97C14.24 8.58 14.21 8.5 14.21 8.19C14.21 7.8 14.31 7.29 14.52 6.75C14.85 5.85 14.87 5.31 14.64 3.96C14.56 3.51 14.45 2.93 14.41 2.79C14.27 2.22 14.06 0.839999 14.06 0.329999C14.06 0.189999 13.98 0.169999 13.94 0.169999C13.94 0.169999 13.9 0.169999 13.88 0.189999C13.84 0.229999 13.84 0.329999 13.88 0.699999C13.92 1.3 14.11 2.49 14.25 3.12C14.39 3.74 14.58 4.99 14.58 5.3C14.58 5.63 14.48 6.14 14.31 6.57C14.15 7.02 14 7.56 13.96 7.92V8.06L13.88 7.96C13.51 7.32 13.53 6.85 13.94 6.24C14.08 6.03 14.21 5.54 14.21 5.17C14.21 4.62 13.94 3.45 13.59 2.48C13.36 1.86 12.73 0.349999 12.58 0.349999C12.54 0.349999 12.5 0.369999 12.5 0.389999C12.46 0.449999 12.5 0.569999 12.64 0.839999C13.22 1.89 13.73 3.47 13.92 4.68C14 5.28 13.96 5.69 13.78 6.03C13.51 6.54 13.43 6.69 13.41 6.93V7.03L13.12 6.56C12.21 4.96 11.93 4.4 11.56 3.71C11.15 2.89 10.57 1.64 10.47 1.33C10.43 1.19 10.37 1.08 10.31 1.06H10.21C10.21 1.06 10.3 1.36 10.48 1.96C11.04 3.25 11.82 4.77 12.81 6.5C13.24 7.24 14 8.7 14.33 9.41C14.47 9.7 14.6 9.98 14.72 10.23C14.62 10.05 14.51 9.88 14.39 9.7C14 9.08 13.24 7.65 12.66 6.44C12.17 5.41 11.75 4.61 11.01 3.28C10.13 1.68 10 1.47 9.96004 1.35C9.92004 1.25 9.86004 1.21 9.77004 1.21C9.73004 1.21 9.69004 1.21 9.67004 1.25C9.65004 1.29 9.67004 1.33 9.67004 1.35C9.67004 1.39 10 1.99 10.35 2.62C10.64 3.15 10.95 3.73 11.11 4.02L11.19 4.16C11.29 4.37 11.48 4.69 11.6 4.92C11.72 5.13 11.95 5.6 12.11 5.93L12.38 6.48H12.28C11.77 6.38 10.88 5.76 10.37 5.13C9.86004 4.47 9.07004 2.95 8.74004 1.93C8.68004 1.75 8.64004 1.66 8.58004 1.66C8.54004 1.66 8.52004 1.66 8.48004 1.72C8.38004 1.88 9.18004 3.69 9.57004 4.37C10.31 5.68 11.32 6.55 12.24 6.73L12.53 6.77L13 7.69C13.23 8.16 13.39 8.47 13.43 8.59C13.39 8.59 13.31 8.57 13.2 8.53C12.46 8.35 11.53 7.59 10.71 6.48C9.85004 5.33 9.27004 4.18 8.69004 2.5C8.46004 1.84 8.42004 1.74 8.34004 1.74C8.30004 1.74 8.28004 1.74 8.26004 1.8C8.18004 1.94 9.08004 4.22 9.41004 4.88C9.64004 5.33 10.13 6.11 10.54 6.67C11.42 7.84 12.45 8.66 13.36 8.89C13.63 8.95 13.65 8.97 13.73 9.14C13.79 9.24 13.96 9.53 14.14 9.8C14.26 9.98 14.41 10.19 14.47 10.31C14.47 10.31 14.43 10.27 14.41 10.27C14.1 9.98 13.65 9.76 13.32 9.72C13.11 9.7 13.03 9.72 12.74 9.84C12.39 10 12.14 10 11.81 9.84C11.15 9.51 9.75004 7.87 8.50004 5.96C8.11004 5.39 7.35004 3.85 7.12004 3.19C6.98004 2.8 6.91004 2.7 6.81004 2.7C6.71004 2.7 6.69004 2.74 6.69004 2.76C6.69004 2.84 7.20004 4.07 7.43004 4.57C7.76004 5.31 8.03004 5.76 8.64004 6.66C9.55004 8.01 10.49 9.14 11.19 9.74C11.77 10.23 12.3 10.36 12.79 10.09C13.1 9.93 13.37 9.95 13.7 10.09C13.89 10.17 14.21 10.42 14.36 10.56C14.32 10.56 14.28 10.54 14.22 10.52C13.89 10.42 13.48 10.4 12.94 10.52C12.57 10.58 12.55 10.58 12.28 10.52C11.52 10.31 10.88 9.82 9.98004 8.75C8.95004 7.54 8.19004 6.49 7.41004 5.12C7.16004 4.67 6.81004 4.01 6.67004 3.7C6.44004 3.19 6.36004 3.08 6.28004 3.06C6.26004 3.06 6.22004 3.06 6.20004 3.08C6.14004 3.16 6.67004 4.31 6.69004 4.33C6.92004 4.78 7.62004 5.97 8.03004 6.59C8.59004 7.43 9.02004 8.01 9.78004 8.89C10.75 10 11.32 10.47 12.06 10.72C12.51 10.88 12.59 10.88 13.19 10.76C13.56 10.68 13.66 10.68 13.91 10.72C14.53 10.84 14.94 11.15 15.23 11.75C15.29 11.85 15.33 11.96 15.35 12.02C15.31 12 15.27 11.96 15.23 11.94C14.92 11.73 14.57 11.59 14.3 11.59C14.18 11.59 13.87 11.65 13.6 11.71C12.96 11.87 12.65 11.85 12.22 11.65C11.46 11.28 10.9 10.79 9.77004 9.37C8.84004 8.24 7.86004 7.11 7.18004 6.46C6.34004 5.62 4.94004 4.45 4.73004 4.51C4.73004 4.51 4.67004 4.53 4.65004 4.59C4.65004 4.65 4.71004 4.71 5.06004 4.94C5.27004 5.06 5.62004 5.35 5.84004 5.54C6.75004 6.32 8.45004 8.09 9.09004 8.91C10.41 10.59 10.74 10.94 11.39 11.43C11.78 11.72 12.36 11.98 12.73 12.05C13.02 12.09 13.08 12.09 13.66 11.95C14.34 11.79 14.48 11.79 14.89 11.99C15.47 12.28 15.8 12.79 16.21 14.02C16.4 14.59 16.54 15.23 16.54 15.56C16.54 15.77 16.46 15.99 16.33 16.07C16.23 16.15 15.9 16.15 15.71 16.09C15.63 16.07 15.48 16.03 15.38 16.01C15.22 15.97 15.22 15.95 15.13 15.78C15.03 15.51 14.76 15.04 14.45 14.63C14.06 14.12 13.44 13.54 12.23 12.58C11.37 11.88 10.87 11.45 10.28 10.86C9.42004 10 9.23004 9.75 8.10004 8.01C7.52004 7.15 7.05004 6.61 6.41004 6.16C5.81004 5.75 4.74004 5.09 4.52004 5.05C4.40004 5.03 4.33004 5.05 4.33004 5.11C4.33004 5.11 4.33004 5.19 4.43004 5.23C4.74004 5.35 6.24004 6.28 6.67004 6.63C6.92004 6.81 7.53004 7.55 7.82004 8.03C8.54004 9.14 9.16004 10.02 9.49004 10.41C9.98004 11.01 10.72 11.68 11.96 12.67C13.19 13.66 14.06 14.5 14.45 15.07C14.66 15.4 14.82 15.75 14.86 15.85C14.67 15.79 13.98 15.46 13.58 15.25C13.02 14.94 12.3 14.45 10.8 13.36H10.76C9.79004 12.63 9.16004 11.95 8.89004 11.31V11.29C8.48004 10.37 8.03004 9.57 7.49004 8.74C7.14004 8.21 6.13004 7.14 5.54004 6.67C5.17004 6.38 4.00004 5.58 3.87004 5.58C3.81004 5.58 3.77004 5.62 3.77004 5.66C3.77004 5.72 3.81004 5.8 3.89004 5.82C4.05004 5.88 5.04004 6.54 5.45004 6.91C6.13004 7.46 6.93004 8.39 7.45004 9.15C7.84004 9.75 8.44004 10.83 8.58004 11.26C8.66004 11.51 8.81004 11.79 8.87004 11.94C8.89004 11.98 8.91004 12 8.93004 12.04C8.81004 11.96 8.62004 11.83 8.42004 11.69C7.97004 11.38 7.80004 11.26 7.76004 11.14C7.27004 10.03 6.96004 9.56 6.28004 8.92C5.56004 8.24 4.39004 7.46 3.48004 7.09C3.01004 6.88 2.90004 6.86 2.84004 6.88C2.80004 6.9 2.80004 6.94 2.80004 6.96C2.80004 7.04 3.01004 7.12 3.05004 7.14C4.43004 7.65 5.93004 8.72 6.71004 9.73C6.98004 10.08 7.35004 10.76 7.43004 10.98C7.12004 10.77 5.95004 9.95 5.15004 9.36C4.84004 9.13 4.29004 8.74 3.94004 8.5C3.78004 8.38 3.57004 8.25 3.41004 8.13C3.25004 8.01 3.08004 7.9 2.98004 7.84C2.61004 7.57 2.51004 7.57 2.45004 7.59C2.45004 7.59 2.41004 7.63 2.41004 7.67C2.41004 7.73 2.51004 7.81 2.55004 7.83C2.55004 7.83 2.67004 7.91 2.78004 7.97C2.55004 7.83 2.39004 7.74 2.35004 7.76C2.31004 7.78 2.29004 7.82 2.29004 7.84C2.29004 7.84 2.41004 8.02 2.82004 8.29C3.27004 8.58 4.30004 9.32 6.52004 10.98C6.97004 11.33 7.55004 11.74 7.78004 11.9C7.99004 12.04 8.58004 12.45 9.06004 12.82C9.53004 13.15 10.29 13.66 10.75 13.95C11.63 14.5 12.15 14.85 12.27 15.02C12.43 15.23 12.54 15.51 12.54 15.68C12.54 15.89 12.31 16.05 11.98 16.11C11.75 16.15 10.64 16.09 10 15.99H9.81004C8.71004 15.83 8.10004 15.7 7.98004 15.6C7.59004 15.29 7.55004 15.11 7.69004 14.55C7.81004 14.08 7.77004 13.83 7.53004 13.48C7.06004 12.8 6.19004 12.27 4.11004 11.39C3.72004 11.23 3.08004 10.96 2.69004 10.79L2.40004 10.67C2.09004 10.55 1.76004 10.4 1.60004 10.32C1.19004 10.16 1.17004 10.2 1.13004 10.22V10.3C1.15004 10.38 1.25004 10.44 1.48004 10.53C1.69004 10.59 3.15004 11.23 4.22004 11.68C4.92004 11.99 6.15004 12.6 6.48004 12.83C6.89004 13.1 7.14004 13.32 7.32004 13.61C7.51004 13.88 7.53004 14.06 7.46004 14.37C7.32004 15.03 7.34004 15.29 7.58004 15.58C7.35004 15.4 7.27004 15.21 7.23004 14.76C7.17004 14.1 7.04004 13.82 6.70004 13.47C6.14004 12.94 5.53004 12.63 3.90004 12.07C3.04004 11.78 2.67004 11.66 1.53004 11.37H1.45004C0.850044 11.19 0.790044 11.19 0.750044 11.23C0.730044 11.25 0.730044 11.29 0.730044 11.31C0.730044 11.43 0.850044 11.47 1.45004 11.62C4.50004 12.38 6.22004 13.12 6.74004 13.9C6.88004 14.11 6.93004 14.25 7.03004 14.93C7.07004 15.18 7.13004 15.38 7.22004 15.5L7.30004 15.62H7.26004C7.26004 15.62 7.12004 15.58 7.03004 15.5C6.95004 15.42 6.91004 15.25 6.91004 14.99C6.91004 14.19 6.79004 13.88 6.31004 13.51C5.61004 12.96 4.48004 12.57 3.16004 12.42C2.48004 12.34 1.72004 12.21 1.12004 12.05L1.00004 12.01C0.610044 11.91 0.570044 11.91 0.550044 11.93C0.530044 11.95 0.530044 11.97 0.530044 11.99C0.530044 12.22 2.11004 12.52 2.77004 12.59C4.50004 12.77 5.59004 13.12 6.23004 13.7C6.60004 14.03 6.62004 14.09 6.66004 14.79C6.66004 14.97 6.70004 15.41 6.72004 15.49C6.66004 15.49 6.00004 15.31 5.51004 15.18C4.89004 15.04 4.30004 14.89 4.15004 14.87C3.94004 14.85 3.90004 14.83 3.80004 14.69C3.45004 14.24 2.79004 13.79 2.26004 13.6C1.93004 13.48 0.820044 13.27 0.510044 13.27C0.320044 13.27 0.240044 13.29 0.240044 13.35C0.240044 13.35 0.360044 13.47 0.610044 13.49C1.00004 13.53 1.82004 13.7 2.11004 13.8C2.46004 13.92 2.87004 14.13 3.12004 14.33C3.31004 14.49 3.47004 14.66 3.51004 14.74C3.37004 14.74 2.89004 14.7 2.28004 14.62C1.17004 14.5 0.700044 14.44 0.300044 14.33C0.240044 14.33 0.200044 14.31 0.160044 14.33C0.120044 14.35 0.120044 14.39 0.120044 14.43C0.120044 14.51 0.140044 14.57 0.200044 14.57C0.220044 14.57 0.430044 14.61 0.610044 14.63C0.840044 14.67 1.56004 14.77 2.17004 14.84C4.00004 15.05 4.25004 15.09 5.48004 15.39C6.51004 15.66 7.23004 15.8 8.34004 15.96C7.43004 15.9 6.53004 15.75 5.29004 15.49C4.30004 15.26 2.68004 15 1.85004 14.92C0.220044 14.78 4.39435e-05 14.76 -0.0399561 14.86C-0.0599561 14.9 -0.0399561 14.96 -0.0199561 14.98C0.0200439 15.04 0.140044 15.06 0.330044 15.06C0.700044 15.06 2.31004 15.22 2.96004 15.33C3.25004 15.37 3.56004 15.41 3.60004 15.41C3.60004 15.41 3.58004 15.51 3.46004 15.62C3.23004 15.83 2.78004 16.03 2.35004 16.13C2.02004 16.21 1.16004 16.29 0.330044 16.31C0.140044 16.31 -0.0799561 16.33 -0.0799561 16.43C-0.0799561 16.43 4.39435e-05 16.51 0.110044 16.53C0.380044 16.57 1.90004 16.49 2.27004 16.41C3.13004 16.23 3.63004 15.94 3.92004 15.49C3.96004 15.43 4.45004 15.53 5.98004 15.86C6.68004 16 7.30004 16.11 7.81004 16.15H8.18004V16.36C8.18004 16.54 8.18004 16.63 8.30004 16.75C8.38004 16.85 8.57004 16.98 8.71004 17.04C8.92004 17.14 9.02004 17.22 9.02004 17.29C9.02004 17.41 8.59004 17.56 8.46004 17.62C7.60004 17.93 6.67004 18.09 5.04004 18.19C3.33004 18.31 1.36004 18.48 0.900044 18.56C0.570044 18.62 0.180044 18.72 0.100044 18.81C0.080044 18.83 4.39435e-05 18.91 0.0400439 18.97C0.0600439 19.01 0.120044 19.03 0.370044 18.97C0.490044 18.93 0.760044 18.87 0.930044 18.83C1.36004 18.77 3.05004 18.6 3.71004 18.58C4.02004 18.58 4.55004 18.52 4.90004 18.5C5.25004 18.46 5.70004 18.42 5.93004 18.42C6.92004 18.36 8.54004 17.99 9.02004 17.74C9.29004 17.6 9.33004 17.58 9.31004 17.39C9.29004 17.14 9.19004 17.02 8.88004 16.86C8.55004 16.68 8.49004 16.57 8.49004 16.39V16.27H8.80004C9.07004 16.27 9.44004 16.27 9.48004 16.37C9.58004 16.66 10.2 17.09 10.71 17.21C11 17.27 11.18 17.42 11.2 17.46C11.2 17.5 11.04 17.67 10.77 17.83C10.36 18.08 9.00004 18.49 8.10004 18.67C7.57004 18.77 6.47004 18.92 5.59004 19C3.74004 19.16 2.09004 19.33 1.47004 19.43C0.150044 19.68 0.150044 19.78 0.150044 19.84C0.150044 19.86 0.150044 19.9 0.190044 19.94C0.230044 19.98 0.290044 19.94 0.580044 19.88C0.890044 19.78 1.07004 19.76 2.39004 19.59C3.62004 19.43 4.47004 19.34 5.58004 19.26C6.57004 19.18 7.56004 19.08 8.17004 18.93C8.66004 18.83 9.75004 18.52 10.17 18.38C10.83 18.15 11.49 17.78 11.49 17.5C11.49 17.32 11.24 17.13 10.83 17.01C10.62 16.95 10.4 16.87 10.3 16.8C10.14 16.72 9.89004 16.45 9.83004 16.35C10.22 16.33 13.43 16.66 13.8 16.8C13.96 16.86 14.07 16.96 14.07 17.05C14.07 17.21 13.82 17.4 13 17.81C12.51 18.06 11.7 18.51 11.19 18.82C10.04 19.52 9.24004 19.93 8.84004 20.01C8.47004 20.09 7.93004 20.09 7.01004 20.01C6.39004 19.97 6.19004 19.97 5.59004 20.03C4.50004 20.15 3.33004 20.48 2.13004 21.02C1.92004 21.1 1.47004 21.29 1.14004 21.39C0.580044 21.57 0.500044 21.62 0.480044 21.7C0.480044 21.74 0.500044 21.78 0.520044 21.78C0.620044 21.88 1.94004 21.37 2.33004 21.21C2.93004 20.94 4.14004 20.55 4.70004 20.45C5.58004 20.29 6.06004 20.24 7.00004 20.29C7.49004 20.31 8.03004 20.33 8.23004 20.33H8.39004L8.31004 20.37C7.63004 20.74 6.13004 21.33 5.06004 21.66C3.56004 22.11 1.11004 23.01 1.05004 23.24C1.05004 23.3 1.05004 23.32 1.07004 23.34C1.11004 23.38 1.21004 23.38 1.58004 23.2C2.24004 22.89 3.43004 22.44 5.00004 21.93C5.86004 21.64 6.79004 21.33 7.06004 21.21C7.82004 20.92 10.39 19.61 11.3 19.05C11.71 18.8 12.47 18.37 13.01 18.11C14.08 17.58 14.16 17.51 14.27 17.27C14.35 17.06 14.33 16.96 14.19 16.78C14.05 16.62 13.92 16.57 13 16.41C12.75 16.37 12.57 16.33 12.44 16.31C12.6 16.25 12.81 16.13 12.91 16C12.99 15.92 13.03 15.79 13.03 15.69C13.03 15.46 12.8 15.01 12.58 14.79C12.54 14.75 12.5 14.73 12.46 14.67C13.12 15.12 13.59 15.39 14.13 15.66C15.78 16.46 16.6 16.56 16.89 16.01C17.1 15.6 16.89 14.37 16.4 13.18C16.19 12.67 15.99 12.22 15.78 11.8C15.88 12.01 16.03 12.23 16.11 12.42C16.38 12.93 16.91 13.77 17.12 13.96C17.31 14.12 17.47 14.19 17.63 14.14C17.88 14.08 18.08 13.81 18.27 13.36C18.43 12.95 18.58 12.46 18.72 11.9C18.68 12.17 18.62 12.41 18.6 12.6C18.25 14.41 18.09 15.72 18.17 16.13C18.21 16.31 18.31 16.46 18.46 16.52C18.73 16.62 19.1 16.52 19.53 16.23C19.74 16.09 21.22 14.71 23.17 12.84C23.64 12.39 24.16 11.92 24.57 11.53C24.01 12.08 23.19 12.88 22.43 13.62C21.67 14.34 20.85 15.1 20.54 15.34C19.74 16 19.55 16.24 19.63 16.51C19.67 16.63 19.84 16.76 20.02 16.8C19.55 16.9 19.36 16.98 19.28 17.25C19.2 17.52 19.49 17.91 20.1 18.38C20.29 18.52 21.15 19.12 22.03 19.71C24.23 21.19 24.89 21.66 27.05 23.4C27.09 23.44 27.13 23.46 27.17 23.5C27.07 23.42 26.96 23.36 26.84 23.27C26.39 22.94 25.71 22.45 25.36 22.18C25.01 21.91 24.15 21.32 23.49 20.87C22.07 19.91 21.54 19.54 21.16 19.23C20.77 18.9 20.4 18.63 19.7 18.14C19.04 17.69 18.61 17.5 18.34 17.57C18.22 17.59 18.13 17.67 18.05 17.78C17.78 18.23 17.8 18.74 18.17 20.24C18.21 20.36 18.23 20.53 18.27 20.65C18.23 20.55 18.19 20.42 18.15 20.28C17.8 19.21 17.39 18.62 17.06 18.62C16.87 18.62 16.63 18.74 16.46 18.95C16.32 19.09 15.99 19.75 15.86 20.08C15.86 20.12 15.82 20.18 15.8 20.22C15.8 20.26 15.78 20.3 15.76 20.32C15.68 20.53 15.43 21.67 15.35 22.27C15.35 22.33 15.35 22.37 15.33 22.43V22.41C15.33 21.98 15.25 21.71 15.08 21.51C14.96 21.39 14.89 21.35 14.71 21.35C14.59 21.35 14.38 21.39 14.28 21.45C14.26 21.45 14.24 21.47 14.22 21.47C14.3 21.37 14.45 21.16 14.59 20.96C15.52 19.69 16.09 18.64 16.22 18.05C16.28 17.76 16.26 17.72 16.18 17.54C16.12 17.42 16.02 17.31 15.91 17.27C15.29 16.96 14.33 17.41 10.99 19.53C9.82004 20.27 9.39004 20.52 8.15004 21.09C6.42004 21.89 6.20004 21.99 5.41004 22.28C5.00004 22.42 4.38004 22.67 4.03004 22.79C3.35004 23.06 2.59004 23.28 1.83004 23.47C1.36004 23.59 1.27004 23.63 1.27004 23.72C1.27004 23.78 1.33004 23.8 1.37004 23.82C1.53004 23.88 3.55004 23.25 4.54004 22.88C5.34004 22.57 5.61004 22.49 5.67004 22.53C5.71004 22.55 5.73004 22.59 5.73004 22.63C5.73004 22.79 5.57004 23.1 5.15004 23.43C4.45004 23.98 3.30004 24.6 2.45004 24.89C1.89004 25.07 1.89004 25.14 1.89004 25.16C1.89004 25.16 1.89004 25.22 1.93004 25.24C1.99004 25.28 2.09004 25.24 2.53004 25.12C3.72004 24.71 4.86004 24.09 5.49004 23.5C5.94004 23.07 6.09004 22.74 5.92004 22.43C5.92004 22.43 5.90004 22.39 5.90004 22.37C5.90004 22.37 5.98004 22.33 6.04004 22.29C6.14004 22.25 6.37004 22.15 6.55004 22.08C6.76004 22 7.35004 21.73 7.52004 21.65C7.83004 21.51 8.05004 21.4 8.14004 21.36C8.14004 21.44 8.08004 21.65 7.98004 21.89C7.82004 22.24 7.40004 22.75 6.99004 23.12C6.13004 23.9 4.54004 24.89 3.04004 25.56C2.32004 25.89 2.30004 25.95 2.30004 26.01C2.30004 26.07 2.38004 26.07 2.40004 26.07C2.67004 26.07 4.62004 25.04 5.69004 24.37C7.34004 23.34 8.26004 22.3 8.39004 21.37V21.21L8.78004 21.05C9.56004 20.7 10.34 20.25 11.85 19.28C12.26 19.01 12.36 18.97 12.41 18.97C12.45 19.01 12.49 19.18 12.55 19.44C12.55 19.46 12.55 19.54 12.41 19.85C12.18 20.3 11.61 20.88 10.76 21.49C7.55004 23.85 6.67004 24.55 5.27004 25.99C4.76004 26.52 3.58004 27.84 3.58004 27.96C3.58004 28.02 3.60004 28.04 3.64004 28.06C3.70004 28.06 3.76004 28.06 4.09004 27.67C4.48004 27.2 5.45004 26.15 6.04004 25.58C6.95004 24.72 8.55004 23.45 10.34 22.15C12.03 20.94 12.62 20.32 12.75 19.63C12.79 19.4 12.75 19.14 12.63 18.85C12.63 18.81 12.94 18.62 13.04 18.56C13.2 18.46 13.35 18.38 13.43 18.33V18.37C13.35 18.58 13.41 18.76 13.64 19.11C13.78 19.36 13.83 19.44 13.85 19.64C13.87 20.03 13.75 20.28 13.17 20.85C12.61 21.42 12.2 21.73 10.54 22.8C8.26004 24.26 7.00004 25.2 5.87004 26.27C5.46004 26.66 4.59004 27.73 4.29004 28.22C4.15004 28.47 4.10004 28.55 4.15004 28.59C4.17004 28.63 4.23004 28.63 4.25004 28.63C4.27004 28.63 4.33004 28.63 4.62004 28.2C5.15004 27.36 5.79004 26.64 6.62004 25.9C7.63004 25.02 8.66004 24.28 11 22.78C12.32 21.94 12.77 21.59 13.33 21.04C13.95 20.42 14.09 20.16 14.11 19.71C14.11 19.44 14.11 19.36 13.88 18.99C13.74 18.72 13.67 18.54 13.72 18.39C13.78 18.18 14.09 18 14.73 17.67C15.02 17.53 15.41 17.44 15.59 17.46C15.69 17.48 15.8 17.52 15.86 17.6C15.96 17.7 15.96 17.74 15.94 17.95C15.92 18.22 15.71 18.75 15.43 19.24C14.98 20.02 14.44 20.8 12.82 22.98C12.74 23.1 12.72 23.1 12.49 23.1C11.79 23.1 10.45 23.65 9.36004 24.39C8.15004 25.19 6.81004 26.57 5.94004 27.86C5.51004 28.5 5.03004 29.28 4.99004 29.36V29.46C4.99004 29.46 5.07004 29.48 5.09004 29.48C5.17004 29.48 5.65004 28.74 5.79004 28.54C6.61004 27.27 7.05004 26.71 7.70004 26.06C8.93004 24.85 10.17 24.03 11.49 23.58C11.92 23.44 12.37 23.35 12.48 23.37C12.46 23.47 12.23 23.76 12.15 23.82C12.13 23.82 11.88 23.92 11.27 24.13C10.01 24.54 9.27004 24.93 8.37004 25.67C7.46004 26.41 6.77004 27.21 5.74004 28.77C5.25004 29.51 5.18004 29.65 5.27004 29.71C5.27004 29.71 5.29004 29.73 5.33004 29.73C5.39004 29.73 5.43004 29.67 5.91004 28.93C7.60004 26.32 8.98004 25.13 11.14 24.43L11.35 24.37C11.62 24.29 11.82 24.21 11.91 24.21C11.91 24.27 11.75 24.46 11.58 24.68L11.44 24.86C10.53 26.05 9.90004 26.85 9.05004 27.88C8.52004 28.54 6.77004 30.67 6.77004 30.98C6.77004 31.02 6.81004 31.04 6.83004 31.06H6.89004C6.89004 31.06 7.30004 30.53 7.51004 30.24C7.80004 29.83 8.29004 29.17 8.62004 28.76C8.99004 28.31 9.71004 27.41 9.92004 27.14C10.33 26.65 11.09 25.64 11.65 24.9C11.92 24.53 12.18 24.18 12.39 23.94C12.12 24.37 11.73 24.99 11.53 25.32C10.87 26.31 10.3 27.06 9.25004 28.32L8.92004 28.73C8.71004 28.98 8.53004 29.2 8.43004 29.35C8.27004 29.56 7.85004 30.03 7.55004 30.36C6.93004 31.04 6.95004 31.1 6.97004 31.14C6.97004 31.18 7.01004 31.2 7.03004 31.2H7.13004C7.34004 31.08 10.22 27.61 11.02 26.52C11.23 26.23 11.33 26.13 11.37 26.11C11.37 26.17 11.39 26.29 11.39 26.48C11.39 26.77 11.37 26.91 11.27 27.18C11.11 27.59 10.71 28.23 10.14 29.03C9.40004 30.02 8.25004 31.74 8.25004 31.9C8.25004 31.94 8.29004 31.98 8.37004 31.98C8.47004 31.98 8.58004 31.73 8.60004 31.73C8.66004 31.63 8.83004 31.36 8.97004 31.13C9.75004 30 10.04 29.57 10.31 29.2C10.8 28.54 11.24 27.87 11.42 27.5C11.73 26.88 11.79 26.31 11.61 25.94L11.55 25.82L11.84 25.37C12.03 25.1 12.42 24.47 12.68 23.99L12.76 23.85C12.97 23.5 13.17 23.17 13.21 23.09C13.25 23.13 13.33 23.27 13.42 23.58C13.52 23.91 13.54 23.99 13.52 24.42C13.48 25.22 13.4 25.38 12.2 26.82C10.68 28.65 9.94004 29.73 9.18004 31.23C8.79004 31.99 8.75004 32.15 8.79004 32.24C8.79004 32.26 8.83004 32.28 8.85004 32.28C8.89004 32.28 8.91004 32.28 9.30004 31.5C9.79004 30.51 10.43 29.45 10.93 28.79C11.16 28.48 11.73 27.78 12.19 27.25C12.66 26.7 13.12 26.12 13.22 26C13.47 25.65 13.69 25.16 13.75 24.81C13.85 24.17 13.79 23.72 13.52 23.13L13.38 22.8L13.57 22.51C13.94 21.96 14.39 21.57 14.72 21.57C14.8 21.57 14.86 21.61 14.93 21.67C15.09 21.88 15.16 22.33 15.07 22.9C14.97 23.7 14.47 25.77 14.33 26.12C14.14 26.49 13.82 27.02 13.49 27.41C12.58 28.48 12.36 28.81 12.07 29.4C11.84 29.85 11.78 30.24 11.7 31.29C11.66 32.13 11.58 32.5 11.39 32.89C11.29 33.14 11.29 33.22 11.33 33.24C11.37 33.28 11.43 33.24 11.49 33.18C11.72 32.97 11.88 32.24 11.96 31.11C12.02 30.27 12.1 29.88 12.29 29.47C12.52 28.98 12.78 28.59 13.34 27.95C13.92 27.27 14.14 26.96 14.33 26.64C14.31 26.76 14.27 26.97 14.21 27.24V27.32C13.96 28.39 13.9 28.76 13.68 30.23C13.56 31.11 13.52 31.44 13.37 32.71C13.29 33.49 13.29 33.61 13.37 33.65C13.41 33.67 13.47 33.71 13.51 33.67C13.55 33.65 13.57 33.59 13.57 33.46V33.42C13.57 33.28 13.57 33.26 13.69 32.15C13.85 30.57 14.14 28.66 14.41 27.53C14.47 27.24 14.6 26.65 14.66 26.24C14.72 25.85 14.89 25.09 15.01 24.47C14.97 24.7 14.95 24.94 14.91 25.23C14.68 26.81 14.4 29.03 14.21 30.4C14.11 31.26 13.82 33.17 13.76 33.54C13.76 33.62 13.74 33.68 13.76 33.7C13.8 33.72 13.84 33.7 13.86 33.7C13.96 33.7 14 33.58 14.07 33.21C14.19 32.45 14.3 31.81 14.44 30.5C14.81 27.42 15.35 23.64 15.47 23.13C15.57 23.29 15.82 23.87 15.86 24.14C16.02 24.86 15.76 26.69 15.14 29.46C15.1 29.64 15 30.12 14.98 30.26C14.98 30.38 14.88 30.94 14.79 31.47C14.6 32.6 14.56 33.13 14.63 33.46C14.67 33.67 14.69 33.73 14.75 33.73C14.79 33.73 14.85 33.73 14.87 32.95C14.91 32.11 15.18 30.45 15.57 28.52C16.06 26.16 16.15 25.71 16.15 24.85C16.15 24.17 16.05 23.78 15.76 23.21C15.55 22.8 15.53 22.72 15.55 22.57C15.55 22.53 15.55 22.45 15.57 22.36C15.57 22.24 15.61 22.11 15.63 21.97V21.79L15.67 21.81C15.71 21.97 15.86 22.24 16.06 22.55L15.59 22.24L15.62 22.11ZM19.47 4.31C19.57 3.76 19.7 3.12 19.76 2.67V2.9C19.57 4.97 19.29 6.84 18.83 8.75C18.81 8.87 18.77 9.06 18.71 9.28C18.75 8.99 18.79 8.68 18.83 8.38C19.1 6.37 19.18 5.94 19.47 4.34V4.32V4.31ZM17.95 9.01C17.95 9.01 17.66 8.83 17.52 8.76C17.11 8.55 16.82 8.29 16.61 7.86C16.14 6.9 16.08 5.68 16.32 2.91C16.38 2.29 16.44 1.58 16.48 1.08V1.82C16.44 4.57 16.54 6.4 16.77 7.14C16.85 7.43 17.06 7.76 17.22 7.84C17.41 7.92 17.59 7.9 17.96 7.74C18.35 7.58 18.45 7.6 18.54 7.74C18.62 7.86 18.6 8.11 18.42 9.28C18.42 9.42 18.38 9.61 18.36 9.73C18.28 9.44 18.11 9.16 17.95 9.03V9.01ZM10.6 13.3C10.33 13.14 10 12.93 9.86004 12.83C9.14004 12.34 6.84004 10.65 4.39004 8.83C4.39004 8.83 4.20004 8.71 3.96004 8.52C4.10004 8.62 4.27004 8.73 4.39004 8.83C5.71004 9.79 6.86004 10.62 8.01004 11.4C9.04004 12.1 9.80004 12.65 11.1 13.6C10.94 13.5 10.77 13.39 10.61 13.29V13.31L10.6 13.3ZM27.41 16.26C26.69 16.18 26.46 16.16 24.14 16.18H22.51H22.53C23.72 16.06 27.22 16.06 28.19 16.18H28.44C28.85 16.26 29.45 16.34 29.94 16.41C30.58 16.49 31.09 16.53 31.54 16.55C30.35 16.55 29.26 16.49 27.4 16.24V16.26H27.41Z" fill="#008850"/>
</g>
<defs>
<clipPath id="clip0_673_4">
<rect width="33.6" height="33.6" fill="white"/>
</clipPath>
</defs>
</svg>
